<?xml version="1.0" encoding="UTF-8"?>
<!DOCTYPE svg PUBLIC "-//W3C//DTD SVG 1.1//EN" "http://www.w3.org/Graphics/SVG/1.1/DTD/svg11.dtd">
<svg xmlns="http://www.w3.org/2000/svg" version="1.1" width="1000px" height="1000px" style="shape-rendering:geometricPrecision; text-rendering:geometricPrecision; image-rendering:optimizeQuality; fill-rule:evenodd; clip-rule:evenodd" xmlns:xlink="http://www.w3.org/1999/xlink">
<g><path style="opacity:1" fill="#fefefe" d="M -0.5,-0.5 C 332.833,-0.5 666.167,-0.5 999.5,-0.5C 999.5,332.833 999.5,666.167 999.5,999.5C 666.167,999.5 332.833,999.5 -0.5,999.5C -0.5,666.167 -0.5,332.833 -0.5,-0.5 Z"/></g>
<g><path style="opacity:1" fill="#b497c5" d="M 234.5,79.5 C 240.842,79.3338 247.175,79.5005 253.5,80C 262.096,82.9294 267.596,88.7627 270,97.5C 274.496,142.14 278.83,186.807 283,231.5C 287.445,254.157 278.278,266.324 255.5,268C 210.5,272.167 165.5,276.333 120.5,280.5C 104.595,279.762 96.0955,271.429 95,255.5C 91.0899,209.143 86.9232,162.809 82.5,116.5C 82.5467,104.618 88.2134,96.7842 99.5,93C 144.664,88.6555 189.664,84.1555 234.5,79.5 Z"/></g>
<g><path style="opacity:1" fill="#f9d6dd" d="M 327.5,84.5 C 379.517,84.9172 431.517,86.0839 483.5,88C 491.333,90.5 496.5,95.6667 499,103.5C 498.833,154.168 498.167,204.835 497,255.5C 493.669,269.677 484.669,276.677 470,276.5C 422.508,275.109 375.008,273.942 327.5,273C 318.58,271.077 312.413,265.91 309,257.5C 308.855,205.142 309.855,152.809 312,100.5C 314.685,92.6498 319.852,87.3165 327.5,84.5 Z"/></g>
<g><path style="opacity:1" fill="#fef27b" d="M 535.5,85.5 C 586.168,85.3333 636.834,85.5 687.5,86C 695.816,88.3133 701.649,93.48 705,101.5C 705.667,153.5 705.667,205.5 705,257.5C 702.071,266.096 696.237,271.596 687.5,274C 636.833,274.667 586.167,274.667 535.5,274C 526.026,271.193 519.86,265.026 517,255.5C 516.333,205.833 516.333,156.167 517,106.5C 519.165,95.8423 525.332,88.8423 535.5,85.5 Z"/></g>
<g><path style="opacity:1" fill="#fcfcfc" d="M 143.5,111.5 C 144.507,112.828 145.84,113.828 147.5,114.5C 150.852,113.831 154.185,113.164 157.5,112.5C 165.306,112.656 172.639,114.656 179.5,118.5C 181.967,120.803 184.3,123.303 186.5,126C 187.793,126.49 189.127,126.657 190.5,126.5C 197.55,126.526 203.55,129.026 208.5,134C 209.793,134.49 211.127,134.657 212.5,134.5C 211.784,138.896 209.45,142.229 205.5,144.5C 208.57,147.564 211.237,150.897 213.5,154.5C 205.139,158.899 202.639,165.566 206,174.5C 210.772,180.66 212.772,187.66 212,195.5C 214.768,205.442 221.268,210.109 231.5,209.5C 232.693,209.97 233.36,210.97 233.5,212.5C 232.501,221.169 229.668,229.169 225,236.5C 224.333,237.5 224.333,238.5 225,239.5C 228.409,240.622 231.909,240.789 235.5,240C 243.522,235.173 251.355,235.339 259,240.5C 260.789,244.692 262.123,249.025 263,253.5C 264,254.833 265,254.833 266,253.5C 266.711,255.367 266.211,256.867 264.5,258C 256.284,261.542 250.117,259.375 246,251.5C 246.017,257.808 244.684,258.141 242,252.5C 241.667,249.5 241.333,246.5 241,243.5C 240.107,242.919 239.107,242.585 238,242.5C 234.849,243.246 231.683,243.913 228.5,244.5C 225.188,243.621 221.855,243.454 218.5,244C 210.835,251.005 201.835,255.338 191.5,257C 175.276,259.008 159.609,257.008 144.5,251C 143.309,250.302 142.309,249.469 141.5,248.5C 141.5,246.5 141.5,244.5 141.5,242.5C 144.006,243.75 146.673,244.416 149.5,244.5C 151.5,244.5 153.5,244.5 155.5,244.5C 155.33,243.178 155.663,242.011 156.5,241C 154.527,240.505 152.527,240.338 150.5,240.5C 152.636,228.175 152.969,215.841 151.5,203.5C 160.653,204.557 169.32,203.057 177.5,199C 182.983,194.375 186.316,188.542 187.5,181.5C 185.22,176.788 181.886,172.954 177.5,170C 170.121,164.81 162.121,160.977 153.5,158.5C 153.158,157.662 152.492,157.328 151.5,157.5C 149.046,156.379 146.379,155.546 143.5,155C 132.257,154.1 121.09,154.6 110,156.5C 109.235,156.43 108.735,156.097 108.5,155.5C 115.133,144.024 123.133,133.524 132.5,124C 125.374,120.706 121.04,115.206 119.5,107.5C 124.838,106.998 130.172,106.831 135.5,107C 138.684,107.754 141.351,109.254 143.5,111.5 Z"/></g>
<g><path style="opacity:1" fill="#f8d9ea" d="M 157.5,112.5 C 154.185,113.164 150.852,113.831 147.5,114.5C 145.84,113.828 144.507,112.828 143.5,111.5C 144.083,107.263 145.583,103.263 148,99.5C 150.512,96.1054 153.678,95.1054 157.5,96.5C 153.507,101.866 153.507,107.2 157.5,112.5 Z"/></g>
<g><path style="opacity:1" fill="#e30d20" d="M 605.5,122.5 C 607.763,126.882 609.096,131.549 609.5,136.5C 609.698,144.534 609.365,152.534 608.5,160.5C 606.851,169.013 607.184,177.346 609.5,185.5C 608.714,187.041 607.714,188.374 606.5,189.5C 603.24,190.215 599.907,190.215 596.5,189.5C 596.998,195.499 594.331,197.666 588.5,196C 585.945,194.556 583.279,193.389 580.5,192.5C 577.5,194.5 574.5,196.5 571.5,198.5C 570.558,198.392 569.725,198.059 569,197.5C 568.667,194.833 568.333,192.167 568,189.5C 567.5,189 567,188.5 566.5,188C 562.507,187.83 558.507,187.996 554.5,188.5C 554.292,181.923 554.125,175.257 554,168.5C 552.584,163.588 551.751,158.588 551.5,153.5C 553.588,153.135 555.921,153.135 558.5,153.5C 557.031,159.413 556.531,165.413 557,171.5C 560.005,175.595 562.671,175.261 565,170.5C 566.947,164.181 566.947,157.848 565,151.5C 563.333,150.267 561.833,148.933 560.5,147.5C 553.91,149.256 550.91,146.59 551.5,139.5C 552.59,129.077 557.923,121.744 567.5,117.5C 561.987,116.622 556.654,115.122 551.5,113C 548.833,111 548.833,109 551.5,107C 560.516,102.749 568.683,103.916 576,110.5C 576.667,109.833 576.667,109.167 576,108.5C 572.101,105.693 570.101,102.026 570,97.5C 572.21,96.2512 574.376,96.4178 576.5,98C 580.846,101.527 583.512,106.027 584.5,111.5C 593.109,112.351 600.109,116.018 605.5,122.5 Z"/></g>
<g><path style="opacity:1" fill="#f8d8e9" d="M 190.5,126.5 C 189.127,126.657 187.793,126.49 186.5,126C 184.3,123.303 181.967,120.803 179.5,118.5C 187.617,118.719 191.951,114.719 192.5,106.5C 194.636,107.472 195.803,109.139 196,111.5C 197.587,117.918 195.754,122.918 190.5,126.5 Z"/></g>
<g><path style="opacity:1" fill="#f8d4e6" d="M 124.5,111.5 C 130.456,110.875 135.789,112.375 140.5,116C 132.921,123.741 127.588,122.241 124.5,111.5 Z"/></g>
<g><path style="opacity:1" fill="#fefdfd" d="M 447.5,126.5 C 452.472,128.319 457.139,130.653 461.5,133.5C 469.063,141.979 472.729,151.979 472.5,163.5C 471.217,165.868 469.55,168.035 467.5,170C 466.072,170.579 464.738,170.412 463.5,169.5C 462.341,167.623 460.674,167.123 458.5,168C 453.899,174.51 452.565,181.677 454.5,189.5C 453.065,192.248 450.732,193.914 447.5,194.5C 439.862,195.497 432.196,195.831 424.5,195.5C 420.896,192.865 416.896,192.032 412.5,193C 405.437,196.201 398.437,199.368 391.5,202.5C 396.725,196.599 400.725,189.933 403.5,182.5C 404.809,181.376 405.475,179.876 405.5,178C 396.265,155.494 402.265,138.494 423.5,127C 431.492,125.284 439.492,125.117 447.5,126.5 Z"/></g>
<g><path style="opacity:1" fill="#f39216" d="M 461.5,133.5 C 457.139,130.653 452.472,128.319 447.5,126.5C 450.355,123.408 451.188,119.741 450,115.5C 448.599,113.808 446.766,113.141 444.5,113.5C 444.374,119.448 443.374,119.781 441.5,114.5C 441.931,112.234 443.264,110.734 445.5,110C 456.453,108.135 462.786,112.635 464.5,123.5C 464.073,127.016 463.073,130.349 461.5,133.5 Z"/></g>
<g><path style="opacity:1" fill="#111113" d="M 143.5,129.5 C 147.318,130.799 148.818,133.466 148,137.5C 144.187,140.589 141.687,139.755 140.5,135C 140.613,132.601 141.613,130.768 143.5,129.5 Z"/></g>
<g><path style="opacity:1" fill="#130f10" d="M 572.5,131.5 C 575.286,131.956 576.619,133.623 576.5,136.5C 576.798,139.603 575.465,141.27 572.5,141.5C 567.199,138.075 567.199,134.742 572.5,131.5 Z"/></g>
<g><path style="opacity:1" fill="#f7e5df" d="M 572.5,131.5 C 576.851,130.022 579.518,131.689 580.5,136.5C 579.157,140.922 576.49,142.589 572.5,141.5C 575.465,141.27 576.798,139.603 576.5,136.5C 576.619,133.623 575.286,131.956 572.5,131.5 Z"/></g>
<g><path style="opacity:1" fill="#1ba595" d="M 613.5,240.5 C 613.546,237.432 614.713,234.432 617,231.5C 617.383,232.056 617.883,232.389 618.5,232.5C 626.189,237.386 632.189,235.719 636.5,227.5C 640.315,230.424 644.649,231.258 649.5,230C 654.949,226.338 656.283,221.671 653.5,216C 664.594,214.58 669.094,208.414 667,197.5C 665.75,194.829 663.917,192.663 661.5,191C 670.719,187.875 672.885,182.042 668,173.5C 666.027,172.36 664.193,171.027 662.5,169.5C 666.916,156.922 662.582,151.589 649.5,153.5C 648.051,144.283 642.718,140.116 633.5,141C 630.898,141.883 628.731,143.383 627,145.5C 623.635,137.568 617.802,134.568 609.5,136.5C 609.096,131.549 607.763,126.882 605.5,122.5C 615.361,119.433 622.694,122.433 627.5,131.5C 637.587,123.058 647.087,123.724 656,133.5C 657.759,136.608 658.592,139.941 658.5,143.5C 670.012,142.52 676.679,147.686 678.5,159C 678.518,161.379 677.851,163.546 676.5,165.5C 679.826,167.994 682.66,170.994 685,174.5C 687.313,183.071 684.813,189.738 677.5,194.5C 683.154,200.833 683.987,207.833 680,215.5C 675.691,220.614 670.191,222.614 663.5,221.5C 663.984,238.022 656.317,244.022 640.5,239.5C 634.478,247.844 626.812,249.677 617.5,245C 615.959,243.629 614.625,242.129 613.5,240.5 Z"/></g>
<g><path style="opacity:1" fill="#f9d4e6" d="M 190.5,134.5 C 196.569,133.966 202.235,135.133 207.5,138C 202.638,141.224 197.304,142.224 191.5,141C 190.577,138.959 190.244,136.792 190.5,134.5 Z"/></g>
<g><path style="opacity:1" fill="#fafbfb" d="M 618.5,232.5 C 619.63,227.776 620.964,223.109 622.5,218.5C 627.183,221.532 631.35,220.866 635,216.5C 635.49,215.207 635.657,213.873 635.5,212.5C 641.02,213.316 644.353,210.983 645.5,205.5C 645.471,203.971 644.804,202.804 643.5,202C 650.83,199.154 652.164,194.654 647.5,188.5C 652.382,182.049 651.048,177.549 643.5,175C 645.984,172.716 646.151,170.216 644,167.5C 642.148,163.923 639.482,162.923 636,164.5C 634.446,156.746 630.279,154.746 623.5,158.5C 620.67,153.415 616.67,152.248 611.5,155C 610.391,156.876 609.391,158.709 608.5,160.5C 609.365,152.534 609.698,144.534 609.5,136.5C 617.802,134.568 623.635,137.568 627,145.5C 628.731,143.383 630.898,141.883 633.5,141C 642.718,140.116 648.051,144.283 649.5,153.5C 662.582,151.589 666.916,156.922 662.5,169.5C 664.193,171.027 666.027,172.36 668,173.5C 672.885,182.042 670.719,187.875 661.5,191C 663.917,192.663 665.75,194.829 667,197.5C 669.094,208.414 664.594,214.58 653.5,216C 656.283,221.671 654.949,226.338 649.5,230C 644.649,231.258 640.315,230.424 636.5,227.5C 632.189,235.719 626.189,237.386 618.5,232.5 Z"/></g>
<g><path style="opacity:1" fill="#0f1011" d="M 174.5,138.5 C 178.748,139.588 180.248,142.255 179,146.5C 174.857,149.671 172.357,148.671 171.5,143.5C 171.323,141.032 172.323,139.365 174.5,138.5 Z"/></g>
<g><path style="opacity:1" fill="#f8ae09" d="M 551.5,139.5 C 550.91,146.59 553.91,149.256 560.5,147.5C 560.747,149.858 560.081,151.858 558.5,153.5C 555.921,153.135 553.588,153.135 551.5,153.5C 547.658,153.977 544.658,152.644 542.5,149.5C 546.263,146.743 549.263,143.41 551.5,139.5 Z"/></g>
<g><path style="opacity:1" fill="#0f0f11" d="M 445.5,148.5 C 447.5,148.5 449.5,148.5 451.5,148.5C 452.667,154.496 450.334,156.996 444.5,156C 443.083,153.257 443.416,150.757 445.5,148.5 Z"/></g>
<g><path style="opacity:1" fill="#aa100a" d="M 560.5,147.5 C 561.833,148.933 563.333,150.267 565,151.5C 566.947,157.848 566.947,164.181 565,170.5C 562.671,175.261 560.005,175.595 557,171.5C 556.531,165.413 557.031,159.413 558.5,153.5C 560.081,151.858 560.747,149.858 560.5,147.5 Z"/></g>
<g><path style="opacity:1" fill="#030304" d="M 213.5,154.5 C 224.667,168.008 231.334,183.508 233.5,201C 233.389,204.105 232.722,206.938 231.5,209.5C 221.268,210.109 214.768,205.442 212,195.5C 212.772,187.66 210.772,180.66 206,174.5C 202.639,165.566 205.139,158.899 213.5,154.5 Z"/></g>
<g><path style="opacity:1" fill="#060607" d="M 403.5,182.5 C 400.725,189.933 396.725,196.599 391.5,202.5C 381.096,208.813 369.763,210.98 357.5,209C 350.452,206.928 343.452,204.761 336.5,202.5C 333.167,202.5 329.833,202.5 326.5,202.5C 328.603,196.016 329.77,189.349 330,182.5C 336.653,161.911 350.82,153.078 372.5,156C 377.519,156.673 382.186,158.34 386.5,161C 390.391,165.893 393.891,171.06 397,176.5C 399.116,178.792 401.282,180.792 403.5,182.5 Z"/></g>
<g><path style="opacity:1" fill="#f39e7d" d="M 432.5,152.5 C 436.677,151.842 438.177,153.508 437,157.5C 435.333,160.167 433.667,160.167 432,157.5C 431.36,155.735 431.527,154.068 432.5,152.5 Z"/></g>
<g><path style="opacity:1" fill="#f9d4e6" d="M 151.5,157.5 C 149.266,157.62 147.099,157.287 145,156.5C 143.403,157.885 141.57,158.551 139.5,158.5C 139.338,160.527 139.505,162.527 140,164.5C 142.994,165.89 144.994,164.89 146,161.5C 146.333,163.5 146.667,165.5 147,167.5C 148.667,168.833 150.333,168.833 152,167.5C 152.711,165.101 152.544,162.768 151.5,160.5C 152.243,159.818 152.909,159.151 153.5,158.5C 162.121,160.977 170.121,164.81 177.5,170C 181.886,172.954 185.22,176.788 187.5,181.5C 186.316,188.542 182.983,194.375 177.5,199C 169.32,203.057 160.653,204.557 151.5,203.5C 136.185,202.015 123.019,196.015 112,185.5C 105.878,178.602 103.878,170.602 106,161.5C 106.24,159.148 107.073,157.148 108.5,155.5C 108.735,156.097 109.235,156.43 110,156.5C 121.09,154.6 132.257,154.1 143.5,155C 146.379,155.546 149.046,156.379 151.5,157.5 Z"/></g>
<g><path style="opacity:1" fill="#f6b7d3" d="M 151.5,157.5 C 152.492,157.328 153.158,157.662 153.5,158.5C 152.909,159.151 152.243,159.818 151.5,160.5C 152.544,162.768 152.711,165.101 152,167.5C 150.333,168.833 148.667,168.833 147,167.5C 146.667,165.5 146.333,163.5 146,161.5C 144.994,164.89 142.994,165.89 140,164.5C 139.505,162.527 139.338,160.527 139.5,158.5C 141.57,158.551 143.403,157.885 145,156.5C 147.099,157.287 149.266,157.62 151.5,157.5 Z"/></g>
<g><path style="opacity:1" fill="#bdbec0" d="M 351.5,162.5 C 353.337,162.639 353.67,163.306 352.5,164.5C 351.702,164.043 351.369,163.376 351.5,162.5 Z"/></g>
<g><path style="opacity:1" fill="#f9b30d" d="M 472.5,163.5 C 477.059,168.275 480.893,173.608 484,179.5C 484.874,182.379 484.54,185.045 483,187.5C 477.758,180.788 470.924,176.455 462.5,174.5C 461.058,173.18 460.392,171.514 460.5,169.5C 461.5,169.5 462.5,169.5 463.5,169.5C 464.738,170.412 466.072,170.579 467.5,170C 469.55,168.035 471.217,165.868 472.5,163.5 Z"/></g>
<g><path style="opacity:1" fill="#b4b4b4" d="M 339.5,172.5 C 341.337,172.639 341.67,173.306 340.5,174.5C 339.702,174.043 339.369,173.376 339.5,172.5 Z"/></g>
<g><path style="opacity:1" fill="#d7d8d9" d="M 366.5,175.5 C 368.337,175.639 368.67,176.306 367.5,177.5C 366.702,177.043 366.369,176.376 366.5,175.5 Z"/></g>
<g><path style="opacity:1" fill="#d1d2d5" d="M 379.5,175.5 C 381.465,175.948 381.798,176.948 380.5,178.5C 379.614,177.675 379.281,176.675 379.5,175.5 Z"/></g>
<g><path style="opacity:1" fill="#be1e23" d="M 463.5,169.5 C 462.5,169.5 461.5,169.5 460.5,169.5C 460.392,171.514 461.058,173.18 462.5,174.5C 463.562,177.516 464.729,180.516 466,183.5C 466.667,186.5 466.667,189.5 466,192.5C 461.017,195.738 457.183,194.738 454.5,189.5C 452.565,181.677 453.899,174.51 458.5,168C 460.674,167.123 462.341,167.623 463.5,169.5 Z"/></g>
<g><path style="opacity:1" fill="#bdbec0" d="M 350.5,180.5 C 352.337,180.639 352.67,181.306 351.5,182.5C 350.702,182.043 350.369,181.376 350.5,180.5 Z"/></g>
<g><path style="opacity:1" fill="#e0e2e4" d="M 392.5,181.5 C 394.465,181.948 394.798,182.948 393.5,184.5C 391.481,183.867 391.147,182.867 392.5,181.5 Z"/></g>
<g><path style="opacity:1" fill="#e7e8e9" d="M 339.5,184.5 C 340.675,184.281 341.675,184.614 342.5,185.5C 340.948,186.798 339.948,186.465 339.5,184.5 Z"/></g>
<g><path style="opacity:1" fill="#c8c8cb" d="M 371.5,186.5 C 374.674,186.952 375.007,187.952 372.5,189.5C 371.614,188.675 371.281,187.675 371.5,186.5 Z"/></g>
<g><path style="opacity:1" fill="#238e89" d="M 622.5,218.5 C 622.334,214.486 622.501,210.486 623,206.5C 624.876,204.578 626.376,202.411 627.5,200C 626.407,196.88 624.907,196.713 623,199.5C 622.184,198.177 621.017,197.511 619.5,197.5C 618.572,189.529 614.239,186.862 606.5,189.5C 607.714,188.374 608.714,187.041 609.5,185.5C 607.184,177.346 606.851,169.013 608.5,160.5C 609.391,158.709 610.391,156.876 611.5,155C 616.67,152.248 620.67,153.415 623.5,158.5C 630.279,154.746 634.446,156.746 636,164.5C 639.482,162.923 642.148,163.923 644,167.5C 646.151,170.216 645.984,172.716 643.5,175C 651.048,177.549 652.382,182.049 647.5,188.5C 652.164,194.654 650.83,199.154 643.5,202C 644.804,202.804 645.471,203.971 645.5,205.5C 644.353,210.983 641.02,213.316 635.5,212.5C 635.657,213.873 635.49,215.207 635,216.5C 631.35,220.866 627.183,221.532 622.5,218.5 Z"/></g>
<g><path style="opacity:1" fill="#e4e4e7" d="M 383.5,189.5 C 384.5,189.5 385.5,189.5 386.5,189.5C 385.754,193.31 384.754,193.31 383.5,189.5 Z"/></g>
<g><path style="opacity:1" fill="#dedfe1" d="M 355.5,189.5 C 357.465,189.948 357.798,190.948 356.5,192.5C 354.481,191.867 354.147,190.867 355.5,189.5 Z"/></g>
<g><path style="opacity:1" fill="#e9eaeb" d="M 334.5,192.5 C 336.465,192.948 336.798,193.948 335.5,195.5C 334.614,194.675 334.281,193.675 334.5,192.5 Z"/></g>
<g><path style="opacity:1" fill="#dbdcde" d="M 367.5,194.5 C 369.465,194.948 369.798,195.948 368.5,197.5C 367.614,196.675 367.281,195.675 367.5,194.5 Z"/></g>
<g><path style="opacity:1" fill="#3eb0a7" d="M 606.5,189.5 C 604.015,192.261 602.848,195.594 603,199.5C 596.841,196.148 592.341,197.815 589.5,204.5C 585.559,201.656 581.893,201.989 578.5,205.5C 574.968,201.324 570.968,200.657 566.5,203.5C 565.074,199.065 562.074,197.065 557.5,197.5C 557.982,194.169 556.982,191.503 554.5,189.5C 554.5,189.167 554.5,188.833 554.5,188.5C 558.507,187.996 562.507,187.83 566.5,188C 567,188.5 567.5,189 568,189.5C 568.333,192.167 568.667,194.833 569,197.5C 569.725,198.059 570.558,198.392 571.5,198.5C 574.5,196.5 577.5,194.5 580.5,192.5C 583.279,193.389 585.945,194.556 588.5,196C 594.331,197.666 596.998,195.499 596.5,189.5C 599.907,190.215 603.24,190.215 606.5,189.5 Z"/></g>
<g><path style="opacity:1" fill="#b7b8bb" d="M 378.5,200.5 C 379.978,200.238 381.311,200.571 382.5,201.5C 380.537,204.194 379.203,203.861 378.5,200.5 Z"/></g>
<g><path style="opacity:1" fill="#e21220" d="M 619.5,197.5 C 617.56,204.314 613.227,206.314 606.5,203.5C 604.667,212.83 599.834,214.83 592,209.5C 588.561,217.402 583.728,218.402 577.5,212.5C 573.297,216.461 569.13,216.461 565,212.5C 564.667,211.167 564.333,209.833 564,208.5C 561.503,210.478 558.669,210.978 555.5,210C 553.859,208.871 552.859,207.371 552.5,205.5C 552.66,203.801 552.494,202.134 552,200.5C 547.158,197.942 546.324,194.442 549.5,190C 551.134,189.506 552.801,189.34 554.5,189.5C 556.982,191.503 557.982,194.169 557.5,197.5C 562.074,197.065 565.074,199.065 566.5,203.5C 570.968,200.657 574.968,201.324 578.5,205.5C 581.893,201.989 585.559,201.656 589.5,204.5C 592.341,197.815 596.841,196.148 603,199.5C 602.848,195.594 604.015,192.261 606.5,189.5C 614.239,186.862 618.572,189.529 619.5,197.5 Z"/></g>
<g><path style="opacity:1" fill="#050506" d="M 187.5,204.5 C 200.389,203.888 207.056,210.054 207.5,223C 206.562,237.432 198.896,243.598 184.5,241.5C 183.667,240.5 182.833,239.5 182,238.5C 183.664,233.535 182.664,229.202 179,225.5C 174.65,215.539 177.483,208.539 187.5,204.5 Z"/></g>
<g><path style="opacity:1" fill="#33b4a9" d="M 619.5,197.5 C 621.017,197.511 622.184,198.177 623,199.5C 624.907,196.713 626.407,196.88 627.5,200C 626.376,202.411 624.876,204.578 623,206.5C 622.501,210.486 622.334,214.486 622.5,218.5C 620.964,223.109 619.63,227.776 618.5,232.5C 617.883,232.389 617.383,232.056 617,231.5C 614.713,234.432 613.546,237.432 613.5,240.5C 612.849,239.909 612.182,239.243 611.5,238.5C 605.986,242.783 599.986,244.783 593.5,244.5C 593.945,241.635 593.278,239.135 591.5,237C 588.07,236.362 586.737,237.862 587.5,241.5C 587.5,243.167 587.5,244.833 587.5,246.5C 585.833,246.5 584.167,246.5 582.5,246.5C 582.158,245.662 581.492,245.328 580.5,245.5C 564.738,241.569 555.238,231.569 552,215.5C 551.192,211.973 551.359,208.64 552.5,205.5C 552.859,207.371 553.859,208.871 555.5,210C 558.669,210.978 561.503,210.478 564,208.5C 564.333,209.833 564.667,211.167 565,212.5C 569.13,216.461 573.297,216.461 577.5,212.5C 583.728,218.402 588.561,217.402 592,209.5C 599.834,214.83 604.667,212.83 606.5,203.5C 613.227,206.314 617.56,204.314 619.5,197.5 Z"/></g>
<g><path style="opacity:1" fill="#14827b" d="M 598.5,214.5 C 601.883,214.257 605.049,214.924 608,216.5C 608.624,218.464 608.124,220.131 606.5,221.5C 609.923,224.031 610.257,226.865 607.5,230C 601.355,231.588 596.189,230.088 592,225.5C 590.627,223.305 590.294,220.971 591,218.5C 593.255,216.501 595.755,215.168 598.5,214.5 Z"/></g>
<g><path style="opacity:1" fill="#aaa9a7" d="M 424.5,195.5 C 424.217,196.289 423.717,196.956 423,197.5C 424.702,215.132 417.202,226.465 400.5,231.5C 399.614,232.325 399.281,233.325 399.5,234.5C 398.732,233.737 398.232,232.737 398,231.5C 396.301,232.406 394.467,232.739 392.5,232.5C 392.538,234.636 393.205,235.969 394.5,236.5C 393.504,236.414 392.671,236.748 392,237.5C 391.506,235.866 391.34,234.199 391.5,232.5C 390.5,232.5 389.5,232.5 388.5,232.5C 386.5,232.5 384.5,232.5 382.5,232.5C 382.5,234.167 382.5,235.833 382.5,237.5C 381.539,235.735 381.205,233.735 381.5,231.5C 369.866,230.377 360.866,224.877 354.5,215C 351.133,214.2 347.966,213.034 345,211.5C 344.383,212.449 344.549,213.282 345.5,214C 340.468,215.598 335.968,218.098 332,221.5C 331.333,218.833 331.333,216.167 332,213.5C 333.027,209.574 334.527,205.907 336.5,202.5C 343.452,204.761 350.452,206.928 357.5,209C 369.763,210.98 381.096,208.813 391.5,202.5C 398.437,199.368 405.437,196.201 412.5,193C 416.896,192.032 420.896,192.865 424.5,195.5 Z"/></g>
<g><path style="opacity:1" fill="#f6f7f7" d="M 358.5,202.5 C 359.675,202.281 360.675,202.614 361.5,203.5C 359.948,204.798 358.948,204.465 358.5,202.5 Z"/></g>
<g><path style="opacity:1" fill="#1a1617" d="M 399.5,234.5 C 400.504,236.677 399.838,237.011 397.5,235.5C 397.44,234.957 397.107,234.624 396.5,234.5C 395.818,235.243 395.151,235.909 394.5,236.5C 393.205,235.969 392.538,234.636 392.5,232.5C 394.467,232.739 396.301,232.406 398,231.5C 398.232,232.737 398.732,233.737 399.5,234.5 Z"/></g>
<g><path style="opacity:1" fill="#1d1a1d" d="M 388.5,232.5 C 388.662,234.527 388.495,236.527 388,238.5C 387.617,237.944 387.117,237.611 386.5,237.5C 385.673,236.561 385.006,236.895 384.5,238.5C 383.833,238.167 383.167,237.833 382.5,237.5C 382.5,235.833 382.5,234.167 382.5,232.5C 384.5,232.5 386.5,232.5 388.5,232.5 Z"/></g>
<g><path style="opacity:1" fill="#0a090e" d="M 141.5,242.5 C 141.5,244.5 141.5,246.5 141.5,248.5C 137.781,249.466 135.114,247.966 133.5,244C 135.598,238.975 138.265,238.475 141.5,242.5 Z"/></g>
<g><path style="opacity:1" fill="#0c0c0e" d="M 150.5,240.5 C 152.527,240.338 154.527,240.505 156.5,241C 155.663,242.011 155.33,243.178 155.5,244.5C 153.5,244.5 151.5,244.5 149.5,244.5C 149.433,243.041 149.766,241.708 150.5,240.5 Z"/></g>
<g><path style="opacity:1" fill="#f8d4d7" d="M 388.5,232.5 C 389.5,232.5 390.5,232.5 391.5,232.5C 391.34,234.199 391.506,235.866 392,237.5C 392.671,236.748 393.504,236.414 394.5,236.5C 394.5,238.833 394.5,241.167 394.5,243.5C 391.609,244.403 388.609,244.736 385.5,244.5C 385.448,242.097 385.781,239.764 386.5,237.5C 387.117,237.611 387.617,237.944 388,238.5C 388.495,236.527 388.662,234.527 388.5,232.5 Z"/></g>
<g><path style="opacity:1" fill="#ec6e1c" d="M 397.5,235.5 C 396.631,237.717 396.298,240.05 396.5,242.5C 400.182,242.335 403.848,242.501 407.5,243C 405.5,243.333 403.5,243.667 401.5,244C 404.167,244.667 406.833,245.333 409.5,246C 406.144,246.215 402.811,246.215 399.5,246C 401.996,247.08 404.33,248.414 406.5,250C 404.494,249.85 402.494,249.35 400.5,248.5C 398.842,247.819 397.175,246.985 395.5,246C 396.167,245.667 396.833,245.333 397.5,245C 396.263,244.768 395.263,244.268 394.5,243.5C 394.5,241.167 394.5,238.833 394.5,236.5C 395.151,235.909 395.818,235.243 396.5,234.5C 397.107,234.624 397.44,234.957 397.5,235.5 Z"/></g>
<g><path style="opacity:1" fill="#f59e2d" d="M 386.5,237.5 C 385.781,239.764 385.448,242.097 385.5,244.5C 388.609,244.736 391.609,244.403 394.5,243.5C 395.263,244.268 396.263,244.768 397.5,245C 396.833,245.333 396.167,245.667 395.5,246C 397.175,246.985 398.842,247.819 400.5,248.5C 396.441,248.434 392.441,248.267 388.5,248C 391.009,249.421 393.343,251.088 395.5,253C 395.167,253.167 394.833,253.333 394.5,253.5C 390.572,251.62 386.739,249.62 383,247.5C 380.27,248.861 377.437,249.361 374.5,249C 377.35,247.829 380.184,246.662 383,245.5C 383.29,243.08 383.79,240.746 384.5,238.5C 385.006,236.895 385.673,236.561 386.5,237.5 Z"/></g>
<g><path style="opacity:1" fill="#f09110" d="M 580.5,245.5 C 581.492,245.328 582.158,245.662 582.5,246.5C 582.364,249.551 582.698,252.551 583.5,255.5C 583.167,256.167 582.833,256.833 582.5,257.5C 581.167,256.167 579.833,256.167 578.5,257.5C 578.167,257.167 577.833,256.833 577.5,256.5C 580.028,255.184 580.028,254.017 577.5,253C 578.448,252.517 579.448,252.351 580.5,252.5C 580.5,250.167 580.5,247.833 580.5,245.5 Z"/></g>
<g><path style="opacity:1" fill="#f0910e" d="M 593.5,244.5 C 591.452,249.269 591.118,254.269 592.5,259.5C 592.167,260.167 591.833,260.833 591.5,261.5C 590.167,260.167 588.833,260.167 587.5,261.5C 587.167,261.167 586.833,260.833 586.5,260.5C 589.177,258.736 588.844,257.57 585.5,257C 586.793,256.51 588.127,256.343 589.5,256.5C 589.392,251.29 588.725,246.29 587.5,241.5C 586.737,237.862 588.07,236.362 591.5,237C 593.278,239.135 593.945,241.635 593.5,244.5 Z"/></g>
<g><path style="opacity:1" fill="#f9d0b8" d="M 535.5,286.5 C 586.168,286.333 636.834,286.5 687.5,287C 696.237,289.404 702.071,294.904 705,303.5C 705.667,354.833 705.667,406.167 705,457.5C 702.526,466.64 696.693,472.474 687.5,475C 636.833,475.667 586.167,475.667 535.5,475C 525.594,472.093 519.427,465.593 517,455.5C 516.333,405.167 516.333,354.833 517,304.5C 520.45,295.548 526.617,289.548 535.5,286.5 Z"/></g>
<g><path style="opacity:1" fill="#e43422" d="M 125.5,296.5 C 176.168,296.333 226.834,296.5 277.5,297C 288.08,299.337 294.247,305.837 296,316.5C 296.667,366.167 296.667,415.833 296,465.5C 293.806,476.36 287.306,482.86 276.5,485C 226.167,485.667 175.833,485.667 125.5,485C 116.333,482.5 110.5,476.667 108,467.5C 107.333,416.167 107.333,364.833 108,313.5C 111.084,304.915 116.917,299.248 125.5,296.5 Z"/></g>
<g><path style="opacity:1" fill="#19baee" d="M 329.5,293.5 C 379.501,293.333 429.501,293.5 479.5,294C 488.598,296.766 494.765,302.599 498,311.5C 498.667,362.167 498.667,412.833 498,463.5C 496.042,472.793 490.542,478.96 481.5,482C 429.833,482.667 378.167,482.667 326.5,482C 317.458,478.96 311.958,472.793 310,463.5C 309.333,412.833 309.333,362.167 310,311.5C 313.519,302.143 320.019,296.143 329.5,293.5 Z"/></g>
<g><path style="opacity:1" fill="#e31126" d="M 434.5,331.5 C 427.36,325.297 419.36,323.964 410.5,327.5C 408.721,322.985 408.221,318.318 409,313.5C 411.566,308.242 415.233,307.242 420,310.5C 420.333,313.167 420.667,315.833 421,318.5C 427.665,311.113 431.165,312.113 431.5,321.5C 437.852,318.34 440.352,320.34 439,327.5C 437.603,329.07 436.103,330.404 434.5,331.5 Z"/></g>
<g><path style="opacity:1" fill="#020203" d="M 678.5,414.5 C 676.95,413.559 675.284,412.893 673.5,412.5C 672.791,411.596 671.791,411.263 670.5,411.5C 671.126,407.805 670.126,406.971 667.5,409C 648.795,409.716 630.128,410.549 611.5,411.5C 611.567,410.041 611.234,408.708 610.5,407.5C 614.657,406.551 618.99,405.884 623.5,405.5C 627.394,405.89 631.06,405.223 634.5,403.5C 632.806,401.446 631.639,399.112 631,396.5C 630.543,392.118 630.543,387.784 631,383.5C 627.803,390.216 628.303,396.716 632.5,403C 631.906,403.464 631.239,403.631 630.5,403.5C 600.981,401.294 571.648,402.627 542.5,407.5C 543.301,405.958 543.634,404.292 543.5,402.5C 548.167,401.5 552.833,400.5 557.5,399.5C 579.261,405.049 598.761,400.716 616,386.5C 623.897,378.036 627.23,368.036 626,356.5C 624.5,355 623,353.5 621.5,352C 622.996,351.493 624.163,351.993 625,353.5C 624.236,345.564 620.403,339.564 613.5,335.5C 620.239,329.299 628.239,325.466 637.5,324C 656.747,321.525 672.914,327.358 686,341.5C 695.274,357.05 695.94,373.05 688,389.5C 683.228,395.552 680.895,402.552 681,410.5C 680.878,412.437 680.045,413.77 678.5,414.5 Z"/></g>
<g><path style="opacity:1" fill="#fdf050" d="M 246.5,335.5 C 244.599,337.796 242.266,339.629 239.5,341C 233.78,341.788 228.114,341.621 222.5,340.5C 221.167,342.5 219.5,344.167 217.5,345.5C 216.874,337.203 212.54,331.869 204.5,329.5C 203.117,327.68 202.117,325.68 201.5,323.5C 205.183,322.08 208.849,322.414 212.5,324.5C 213.696,324.154 213.696,323.654 212.5,323C 210.167,322 207.833,321 205.5,320C 210.158,318.55 214.824,318.217 219.5,319C 219.167,318.667 218.833,318.333 218.5,318C 212.979,317.24 207.645,317.574 202.5,319C 207.132,314.928 212.465,313.595 218.5,315C 223.519,317.843 228.186,321.176 232.5,325C 235.618,326.893 238.951,328.226 242.5,329C 237.912,329.604 233.578,328.771 229.5,326.5C 228.304,326.846 228.304,327.346 229.5,328C 235.015,330.451 240.681,331.117 246.5,330C 244.109,331.309 244.109,332.309 246.5,333C 244.158,334.392 244.158,335.225 246.5,335.5 Z"/></g>
<g><path style="opacity:1" fill="#fdfcfb" d="M 434.5,331.5 C 438.226,336.286 440.893,341.619 442.5,347.5C 441.504,347.414 440.671,347.748 440,348.5C 439.386,352.079 437.552,354.746 434.5,356.5C 436.461,360.007 439.461,361.34 443.5,360.5C 443.334,366.842 443.5,373.175 444,379.5C 444.774,384.224 446.94,388.057 450.5,391C 449.473,391.513 448.473,392.013 447.5,392.5C 442.653,393.16 438.819,391.493 436,387.5C 435.505,389.473 435.338,391.473 435.5,393.5C 431.438,393.276 428.605,391.276 427,387.5C 425.39,389.597 424.223,391.93 423.5,394.5C 420.195,393.028 417.695,390.695 416,387.5C 414.39,389.597 413.223,391.93 412.5,394.5C 409.434,392.707 407.6,390.04 407,386.5C 405.088,388.657 403.421,390.991 402,393.5C 399.998,391.497 398.498,389.164 397.5,386.5C 395.929,387.309 394.262,387.643 392.5,387.5C 391.005,387.585 390.005,386.919 389.5,385.5C 391.48,383.205 392.647,380.539 393,377.5C 393.09,366.109 393.757,354.776 395,343.5C 397.682,335.652 402.849,330.319 410.5,327.5C 419.36,323.964 427.36,325.297 434.5,331.5 Z"/></g>
<g><path style="opacity:1" fill="#fcfcfb" d="M 613.5,335.5 C 620.403,339.564 624.236,345.564 625,353.5C 624.163,351.993 622.996,351.493 621.5,352C 623,353.5 624.5,355 626,356.5C 627.23,368.036 623.897,378.036 616,386.5C 598.761,400.716 579.261,405.049 557.5,399.5C 552.62,396.801 548.12,393.468 544,389.5C 543.64,387.392 542.973,385.392 542,383.5C 541.333,384.833 540.667,384.833 540,383.5C 536.303,373.778 536.803,364.278 541.5,355C 538.338,351.835 537.005,348.001 537.5,343.5C 540.865,343.255 544.032,343.922 547,345.5C 558.217,334.372 571.717,328.372 587.5,327.5C 588.056,323.709 590.056,321.043 593.5,319.5C 596.737,321.975 598.404,325.308 598.5,329.5C 603.997,330.331 608.997,332.331 613.5,335.5 Z"/></g>
<g><path style="opacity:1" fill="#fdef68" d="M 247.5,335.5 C 247.167,335.5 246.833,335.5 246.5,335.5C 244.158,335.225 244.158,334.392 246.5,333C 244.109,332.309 244.109,331.309 246.5,330C 240.681,331.117 235.015,330.451 229.5,328C 228.304,327.346 228.304,326.846 229.5,326.5C 233.578,328.771 237.912,329.604 242.5,329C 238.951,328.226 235.618,326.893 232.5,325C 228.186,321.176 223.519,317.843 218.5,315C 212.465,313.595 207.132,314.928 202.5,319C 207.645,317.574 212.979,317.24 218.5,318C 218.833,318.333 219.167,318.667 219.5,319C 214.824,318.217 210.158,318.55 205.5,320C 207.833,321 210.167,322 212.5,323C 213.696,323.654 213.696,324.154 212.5,324.5C 208.849,322.414 205.183,322.08 201.5,323.5C 200.167,322.833 199.167,321.833 198.5,320.5C 206.701,311.202 216.368,309.368 227.5,315C 231.247,319.418 235.58,323.084 240.5,326C 244.987,327.378 248.487,326.212 251,322.5C 252.166,327.49 251,331.823 247.5,335.5 Z"/></g>
<g><path style="opacity:1" fill="#e3bc85" d="M 198.5,320.5 C 199.167,321.833 200.167,322.833 201.5,323.5C 202.117,325.68 203.117,327.68 204.5,329.5C 212.54,331.869 216.874,337.203 217.5,345.5C 219.5,344.167 221.167,342.5 222.5,340.5C 228.114,341.621 233.78,341.788 239.5,341C 242.266,339.629 244.599,337.796 246.5,335.5C 246.833,335.5 247.167,335.5 247.5,335.5C 251.636,337.986 255.636,340.653 259.5,343.5C 241.373,354.428 234.039,370.428 237.5,391.5C 233.963,390.733 230.629,389.4 227.5,387.5C 227.167,388 226.833,388.5 226.5,389C 228.906,394.928 230.406,401.094 231,407.5C 231.241,414.896 231.407,422.23 231.5,429.5C 235.874,431.236 240.207,433.069 244.5,435C 245.804,435.804 246.471,436.971 246.5,438.5C 245.526,443.115 243.526,447.115 240.5,450.5C 238.938,450.267 237.605,449.6 236.5,448.5C 237.455,446.254 238.122,443.921 238.5,441.5C 233.733,441.474 229.066,440.807 224.5,439.5C 225.625,447.133 226.625,454.799 227.5,462.5C 225.708,462.366 224.042,462.699 222.5,463.5C 220.515,458.859 218.515,454.193 216.5,449.5C 216.043,448.702 215.376,448.369 214.5,448.5C 215.598,447.603 215.598,446.77 214.5,446C 212.161,444.657 209.828,443.324 207.5,442C 201.167,441.333 194.833,441.333 188.5,442C 187.696,445.117 187.03,448.284 186.5,451.5C 184.491,453.169 182.491,454.836 180.5,456.5C 181.801,459.427 182.801,462.427 183.5,465.5C 182.205,466.488 180.872,467.488 179.5,468.5C 177.485,465.162 174.985,462.162 172,459.5C 170.525,462.122 169.359,464.788 168.5,467.5C 166.833,467.5 165.167,467.5 163.5,467.5C 164.214,462.648 165.214,457.815 166.5,453C 164.492,448.482 162.325,443.982 160,439.5C 157.984,434.012 157.151,428.345 157.5,422.5C 158.686,421.295 158.686,419.961 157.5,418.5C 160.563,416.949 163.229,414.782 165.5,412C 167.909,410.293 170.575,409.46 173.5,409.5C 174.658,412.822 176.992,414.988 180.5,416C 184.259,417.607 187.926,417.774 191.5,416.5C 198.74,415.095 203.24,410.762 205,403.5C 205.774,396.776 205.441,390.11 204,383.5C 200.133,373.566 196.467,363.566 193,353.5C 192.335,346.805 192.502,340.138 193.5,333.5C 191.336,333.279 189.67,332.279 188.5,330.5C 186.279,326.832 185.279,322.832 185.5,318.5C 190.031,318.15 194.364,318.817 198.5,320.5 Z"/></g>
<g><path style="opacity:1" fill="#151517" d="M 421.5,340.5 C 425.648,340.453 427.148,342.453 426,346.5C 424.084,349.033 422.084,349.033 420,346.5C 419.252,344.16 419.752,342.16 421.5,340.5 Z"/></g>
<g><path style="opacity:1" fill="#0a090a" d="M 228.5,345.5 C 231.695,345.513 233.362,347.18 233.5,350.5C 232.905,352.761 231.571,354.428 229.5,355.5C 225.746,354.172 224.579,351.506 226,347.5C 226.708,346.619 227.542,345.953 228.5,345.5 Z"/></g>
<g><path style="opacity:1" fill="#e7e4e1" d="M 228.5,345.5 C 227.542,345.953 226.708,346.619 226,347.5C 224.579,351.506 225.746,354.172 229.5,355.5C 225.325,356.567 222.658,354.734 221.5,350C 222.368,345.563 224.701,344.063 228.5,345.5 Z"/></g>
<g><path style="opacity:1" fill="#e31325" d="M 442.5,347.5 C 443.249,349.246 444.583,350.246 446.5,350.5C 448.383,349.976 450.216,349.309 452,348.5C 453.732,348.734 454.566,349.734 454.5,351.5C 452.349,356.315 448.682,359.315 443.5,360.5C 439.461,361.34 436.461,360.007 434.5,356.5C 437.552,354.746 439.386,352.079 440,348.5C 440.671,347.748 441.504,347.414 442.5,347.5 Z"/></g>
<g><path style="opacity:1" fill="#19191b" d="M 576.5,354.5 C 577.5,354.5 578.5,354.5 579.5,354.5C 579.5,355.833 579.5,357.167 579.5,358.5C 576.046,358.733 575.046,357.4 576.5,354.5 Z"/></g>
<g><path style="opacity:1" fill="#f1dfa7" d="M 259.5,343.5 C 274.298,352.733 278.131,365.4 271,381.5C 262.465,393.263 251.298,396.596 237.5,391.5C 234.039,370.428 241.373,354.428 259.5,343.5 Z"/></g>
<g><path style="opacity:1" fill="#e31225" d="M 365.5,384.5 C 357.527,384.808 352.527,388.808 350.5,396.5C 346.167,397.465 343.167,395.965 341.5,392C 342.711,388.793 345.044,387.126 348.5,387C 344.22,383.47 342.887,379.137 344.5,374C 350.693,372.346 354.86,374.513 357,380.5C 357.788,376.427 358.788,372.427 360,368.5C 362.244,366.006 364.577,366.006 367,368.5C 369.02,374.054 368.52,379.387 365.5,384.5 Z"/></g>
<g><path style="opacity:1" fill="#fdf049" d="M 365.5,384.5 C 366.07,388.912 368.403,392.078 372.5,394C 378.394,395.037 384.061,394.371 389.5,392C 391.141,390.871 392.141,389.371 392.5,387.5C 394.262,387.643 395.929,387.309 397.5,386.5C 398.498,389.164 399.998,391.497 402,393.5C 403.421,390.991 405.088,388.657 407,386.5C 407.6,390.04 409.434,392.707 412.5,394.5C 413.223,391.93 414.39,389.597 416,387.5C 417.695,390.695 420.195,393.028 423.5,394.5C 424.223,391.93 425.39,389.597 427,387.5C 428.605,391.276 431.438,393.276 435.5,393.5C 435.338,391.473 435.505,389.473 436,387.5C 438.819,391.493 442.653,393.16 447.5,392.5C 450.488,406.745 448.321,420.078 441,432.5C 437.938,435.732 434.771,438.732 431.5,441.5C 430.391,441.557 429.391,441.89 428.5,442.5C 418.675,446.857 408.342,448.857 397.5,448.5C 396.5,448.5 395.5,448.5 394.5,448.5C 361.599,446.734 346.932,429.401 350.5,396.5C 352.527,388.808 357.527,384.808 365.5,384.5 Z"/></g>
<g><path style="opacity:1" fill="#fcfaf8" d="M 543.5,402.5 C 543.634,404.292 543.301,405.958 542.5,407.5C 539.027,407.576 535.694,408.242 532.5,409.5C 532.421,408.07 532.754,406.736 533.5,405.5C 530.952,403.781 531.285,402.448 534.5,401.5C 535.167,401.167 535.833,400.833 536.5,400.5C 538.646,401.894 540.979,402.56 543.5,402.5 Z"/></g>
<g><path style="opacity:1" fill="#454447" d="M 623.5,405.5 C 625.833,404.833 628.167,404.167 630.5,403.5C 631.239,403.631 631.906,403.464 632.5,403C 628.303,396.716 627.803,390.216 631,383.5C 630.543,387.784 630.543,392.118 631,396.5C 631.639,399.112 632.806,401.446 634.5,403.5C 631.06,405.223 627.394,405.89 623.5,405.5 Z"/></g>
<g><path style="opacity:1" fill="#fdef72" d="M 191.5,416.5 C 187.926,417.774 184.259,417.607 180.5,416C 176.992,414.988 174.658,412.822 173.5,409.5C 173.842,408.662 174.508,408.328 175.5,408.5C 182.253,413.604 186.753,411.937 189,403.5C 189.667,399.5 189.667,395.5 189,391.5C 187.002,385.497 185.335,379.497 184,373.5C 189.505,383.519 191.505,394.186 190,405.5C 188.895,408.937 186.728,411.437 183.5,413C 185.167,413.333 186.833,413.667 188.5,414C 187.112,414.889 187.278,415.389 189,415.5C 196.51,412.994 200.677,407.827 201.5,400C 200.797,397.171 200.63,394.338 201,391.5C 204.795,402.63 201.628,410.963 191.5,416.5 Z"/></g>
<g><path style="opacity:1" fill="#fdef51" d="M 188.5,330.5 C 189.67,332.279 191.336,333.279 193.5,333.5C 192.502,340.138 192.335,346.805 193,353.5C 196.467,363.566 200.133,373.566 204,383.5C 205.441,390.11 205.774,396.776 205,403.5C 203.24,410.762 198.74,415.095 191.5,416.5C 201.628,410.963 204.795,402.63 201,391.5C 200.63,394.338 200.797,397.171 201.5,400C 200.677,407.827 196.51,412.994 189,415.5C 187.278,415.389 187.112,414.889 188.5,414C 186.833,413.667 185.167,413.333 183.5,413C 186.728,411.437 188.895,408.937 190,405.5C 191.505,394.186 189.505,383.519 184,373.5C 185.335,379.497 187.002,385.497 189,391.5C 189.667,395.5 189.667,399.5 189,403.5C 186.753,411.937 182.253,413.604 175.5,408.5C 182.026,408.308 185.026,404.975 184.5,398.5C 184.266,393.296 183.1,388.296 181,383.5C 178.117,378.401 175.783,373.067 174,367.5C 170.444,353.071 175.277,340.738 188.5,330.5 Z"/></g>
<g><path style="opacity:1" fill="#fdfaf8" d="M 610.5,407.5 C 611.234,408.708 611.567,410.041 611.5,411.5C 608.318,412.03 605.318,413.03 602.5,414.5C 602.5,413.5 602.5,412.5 602.5,411.5C 601.5,411.5 600.5,411.5 599.5,411.5C 599.5,410.5 599.5,409.5 599.5,408.5C 600.5,408.5 601.5,408.5 602.5,408.5C 602.281,407.325 602.614,406.325 603.5,405.5C 605.51,407.171 607.843,407.838 610.5,407.5 Z"/></g>
<g><path style="opacity:1" fill="#fbfaf9" d="M 673.5,412.5 C 675.284,412.893 676.95,413.559 678.5,414.5C 678.132,420.511 675.132,425.178 669.5,428.5C 668.167,426.167 666.833,423.833 665.5,421.5C 667.629,418.905 668.962,415.905 669.5,412.5C 670.833,412.5 672.167,412.5 673.5,412.5 Z"/></g>
<g><path style="opacity:1" fill="#f3930b" d="M 406.5,401.5 C 417.211,401.057 421.045,406.057 418,416.5C 413.663,424.913 406.829,429.079 397.5,429C 396.333,428.5 395.5,427.667 395,426.5C 394.695,424.443 394.695,422.443 395,420.5C 389.724,423.463 384.724,423.129 380,419.5C 378.418,417.376 378.251,415.21 379.5,413C 384.269,410.838 389.269,409.172 394.5,408C 398.561,405.722 402.561,403.555 406.5,401.5 Z"/></g>
<g><path style="opacity:1" fill="#f8f8f7" d="M 584.5,419.5 C 586.985,421.652 588.651,424.319 589.5,427.5C 589.5,427.833 589.5,428.167 589.5,428.5C 586.289,428.986 583.289,429.986 580.5,431.5C 578.22,427.691 574.887,425.358 570.5,424.5C 574.318,421.027 578.985,419.36 584.5,419.5 Z"/></g>
<g><path style="opacity:1" fill="#0d0e0f" d="M 605.5,419.5 C 606.234,420.708 606.567,422.041 606.5,423.5C 606.5,424.833 606.5,426.167 606.5,427.5C 600.833,427.5 595.167,427.5 589.5,427.5C 588.651,424.319 586.985,421.652 584.5,419.5C 591.358,418.262 598.358,418.262 605.5,419.5 Z"/></g>
<g><path style="opacity:1" fill="#fcfbf9" d="M 605.5,419.5 C 610.938,419.988 616.272,420.988 621.5,422.5C 621.5,425.5 621.5,428.5 621.5,431.5C 616.906,430.185 612.239,429.185 607.5,428.5C 607.784,426.585 607.451,424.919 606.5,423.5C 606.567,422.041 606.234,420.708 605.5,419.5 Z"/></g>
<g><path style="opacity:1" fill="#09080a" d="M 665.5,421.5 C 666.833,423.833 668.167,426.167 669.5,428.5C 665.462,431.684 660.795,433.351 655.5,433.5C 655.802,430.941 655.468,428.607 654.5,426.5C 654.5,426.167 654.5,425.833 654.5,425.5C 658.353,424.55 662.02,423.217 665.5,421.5 Z"/></g>
<g><path style="opacity:1" fill="#060607" d="M 621.5,422.5 C 627.297,424.525 633.297,425.525 639.5,425.5C 639.5,428.167 639.5,430.833 639.5,433.5C 633.448,433.269 627.448,432.602 621.5,431.5C 621.5,428.5 621.5,425.5 621.5,422.5 Z"/></g>
<g><path style="opacity:1" fill="#080809" d="M 570.5,424.5 C 574.887,425.358 578.22,427.691 580.5,431.5C 578.396,433.372 577.063,435.705 576.5,438.5C 567.925,435.956 561.592,438.623 557.5,446.5C 555.611,438.725 557.945,432.225 564.5,427C 566.217,425.441 568.217,424.608 570.5,424.5 Z"/></g>
<g><path style="opacity:1" fill="#fbfaf8" d="M 639.5,425.5 C 644.5,425.5 649.5,425.5 654.5,425.5C 654.5,425.833 654.5,426.167 654.5,426.5C 654.5,429.167 654.5,431.833 654.5,434.5C 649.305,434.821 644.305,434.487 639.5,433.5C 639.5,430.833 639.5,428.167 639.5,425.5 Z"/></g>
<g><path style="opacity:1" fill="#6d6569" d="M 606.5,423.5 C 607.451,424.919 607.784,426.585 607.5,428.5C 601.5,428.5 595.5,428.5 589.5,428.5C 589.5,428.167 589.5,427.833 589.5,427.5C 595.167,427.5 600.833,427.5 606.5,427.5C 606.5,426.167 606.5,424.833 606.5,423.5 Z"/></g>
<g><path style="opacity:1" fill="#fcfbfa" d="M 576.5,438.5 C 585.826,445.163 585.492,451.663 575.5,458C 564.182,461.789 558.182,457.956 557.5,446.5C 561.592,438.623 567.925,435.956 576.5,438.5 Z"/></g>
<g><path style="opacity:1" fill="#e5541a" d="M 428.5,442.5 C 429.391,441.89 430.391,441.557 431.5,441.5C 435.678,448.341 439.345,448.008 442.5,440.5C 442.833,441 443.167,441.5 443.5,442C 442.385,443.393 441.885,444.893 442,446.5C 443.494,445.253 444.994,445.253 446.5,446.5C 444.78,447.934 442.78,448.767 440.5,449C 447.435,452.024 447.102,453.024 439.5,452C 435.641,448.968 431.974,445.802 428.5,442.5 Z"/></g>
<g><path style="opacity:1" fill="#f1daa3" d="M 214.5,448.5 C 205.464,452.398 196.131,453.398 186.5,451.5C 187.03,448.284 187.696,445.117 188.5,442C 194.833,441.333 201.167,441.333 207.5,442C 209.828,443.324 212.161,444.657 214.5,446C 215.598,446.77 215.598,447.603 214.5,448.5 Z"/></g>
<g><path style="opacity:1" fill="#14100f" d="M 236.5,448.5 C 237.605,449.6 238.938,450.267 240.5,450.5C 239.457,457.283 237.124,457.949 233.5,452.5C 234.035,450.739 235.035,449.406 236.5,448.5 Z"/></g>
<g><path style="opacity:1" fill="#fded58" d="M 157.5,418.5 C 158.686,419.961 158.686,421.295 157.5,422.5C 154.949,424.578 153.116,427.244 152,430.5C 151.839,439.466 150.173,448.133 147,456.5C 145.829,458.616 144.329,459.282 142.5,458.5C 138.91,460.969 134.91,461.969 130.5,461.5C 132.048,457.03 133.715,452.53 135.5,448C 134.978,447.05 134.311,446.216 133.5,445.5C 134.742,438.532 136.909,431.865 140,425.5C 144.432,419.701 150.266,417.368 157.5,418.5 Z"/></g>
<g><path style="opacity:1" fill="#e15c26" d="M 394.5,448.5 C 395.5,448.5 396.5,448.5 397.5,448.5C 396.949,451.807 396.616,455.14 396.5,458.5C 399.073,458.148 401.406,458.648 403.5,460C 402.377,461.044 401.044,461.71 399.5,462C 400.687,463.019 401.687,464.186 402.5,465.5C 401.635,466.583 400.635,466.749 399.5,466C 398.491,463.828 396.824,462.662 394.5,462.5C 394.657,463.873 394.49,465.207 394,466.5C 393.282,467.451 392.449,467.617 391.5,467C 393.565,461.047 394.565,454.881 394.5,448.5 Z"/></g>
<g><path style="opacity:1" fill="#201918" d="M 227.5,462.5 C 229.074,464.102 229.741,466.102 229.5,468.5C 227.5,468.5 225.5,468.5 223.5,468.5C 223.371,466.784 223.038,465.117 222.5,463.5C 224.042,462.699 225.708,462.366 227.5,462.5 Z"/></g>
<g><path style="opacity:1" fill="#140d0d" d="M 163.5,467.5 C 165.167,467.5 166.833,467.5 168.5,467.5C 168.938,471.908 166.938,473.575 162.5,472.5C 162.366,470.708 162.699,469.042 163.5,467.5 Z"/></g>
<g><path style="opacity:1" fill="#100d0b" d="M 183.5,465.5 C 189.188,470.223 188.521,472.39 181.5,472C 180.695,470.887 180.028,469.721 179.5,468.5C 180.872,467.488 182.205,466.488 183.5,465.5 Z"/></g>
<g><path style="opacity:1" fill="#fab904" d="M 337.5,502.5 C 387.501,502.333 437.501,502.5 487.5,503C 497.159,505.326 503.659,511.16 507,520.5C 507.667,571.5 507.667,622.5 507,673.5C 504.605,682.229 499.105,688.062 490.5,691C 438.833,691.667 387.167,691.667 335.5,691C 326.93,688.096 321.43,682.263 319,673.5C 318.333,622.833 318.333,572.167 319,521.5C 322.017,511.984 328.184,505.651 337.5,502.5 Z"/></g>
<g><path style="opacity:1" fill="#eae8e9" d="M 121.5,508.5 C 173.501,508.333 225.501,508.5 277.5,509C 285.219,511.596 290.386,516.763 293,524.5C 293.667,576.167 293.667,627.833 293,679.5C 290.432,689.066 284.265,694.9 274.5,697C 224.833,697.667 175.167,697.667 125.5,697C 114.881,695.049 108.048,688.882 105,678.5C 104.333,628.167 104.333,577.833 105,527.5C 107.159,518.18 112.659,511.847 121.5,508.5 Z"/></g>
<g><path style="opacity:1" fill="#9eacd8" d="M 758.5,499.5 C 762.554,501.223 765.221,504.223 766.5,508.5C 764.408,508.439 762.908,507.439 762,505.5C 761.333,565.5 761.333,625.5 762,685.5C 763.11,683.963 764.61,683.297 766.5,683.5C 765.37,687.313 763.037,690.313 759.5,692.5C 756.417,689.959 754.084,686.959 752.5,683.5C 754.903,683.393 756.736,684.393 758,686.5C 758.833,626.164 758.667,565.831 757.5,505.5C 756.579,507.756 754.912,508.756 752.5,508.5C 752.351,507.448 752.517,506.448 753,505.5C 755.04,503.63 756.873,501.63 758.5,499.5 Z"/></g>
<g><path style="opacity:1" fill="#5ac1df" d="M 450.5,597.5 C 437.497,585.577 422.164,581.077 404.5,584C 393.158,585.831 383.825,590.998 376.5,599.5C 376.924,585.235 380.59,571.902 387.5,559.5C 374.81,560.068 364.644,555.402 357,545.5C 354.393,540.62 352.06,535.62 350,530.5C 345.629,528.414 346.129,526.914 351.5,526C 355.833,525.333 360.167,525.333 364.5,526C 368.759,527.934 372.759,530.268 376.5,533C 381.5,537.333 386.5,541.667 391.5,546C 395.463,547.137 398.796,546.303 401.5,543.5C 404.652,542.959 407.152,543.959 409,546.5C 409.784,549.76 409.617,552.927 408.5,556C 410.473,556.495 412.473,556.662 414.5,556.5C 414.135,551.579 415.135,551.245 417.5,555.5C 423.357,554.218 426.024,550.218 425.5,543.5C 428.245,544.737 430.578,546.57 432.5,549C 433.5,549.667 434.5,549.667 435.5,549C 439.46,542.248 443.293,535.414 447,528.5C 453.593,518.733 462.759,514.066 474.5,514.5C 474.951,527.906 470.617,539.406 461.5,549C 455.325,552.588 448.991,555.922 442.5,559C 441.643,559.689 440.977,560.522 440.5,561.5C 446.076,572.893 449.409,584.893 450.5,597.5 Z"/></g>
<g><path style="opacity:1" fill="#101215" d="M 425.5,543.5 C 426.024,550.218 423.357,554.218 417.5,555.5C 415.135,551.245 414.135,551.579 414.5,556.5C 412.473,556.662 410.473,556.495 408.5,556C 409.617,552.927 409.784,549.76 409,546.5C 407.152,543.959 404.652,542.959 401.5,543.5C 402.21,536.625 406.043,532.958 413,532.5C 416.18,532.921 419.18,533.921 422,535.5C 423.626,534.711 425.126,533.711 426.5,532.5C 428.082,536.009 427.416,539.009 424.5,541.5C 424.863,542.183 425.196,542.85 425.5,543.5 Z"/></g>
<g><path style="opacity:1" fill="#f8fbfb" d="M 464.5,523.5 C 465.5,523.5 466.5,523.5 467.5,523.5C 466.521,531.275 463.687,538.275 459,544.5C 452.368,548.302 445.868,552.302 439.5,556.5C 437.899,555.965 437.399,554.965 438,553.5C 442.721,547.779 447.054,541.779 451,535.5C 455.099,530.892 459.599,526.892 464.5,523.5 Z"/></g>
<g><path style="opacity:1" fill="#f7fbfb" d="M 354.5,531.5 C 362.786,535.604 370.119,541.104 376.5,548C 381.003,550.39 385.669,552.39 390.5,554C 387.276,556.477 383.61,557.143 379.5,556C 366.684,552.35 358.351,544.183 354.5,531.5 Z"/></g>
<g><path style="opacity:1" fill="#fcfcfb" d="M 248.5,561.5 C 252.469,560.533 255.969,561.533 259,564.5C 260.07,575.062 260.403,585.729 260,596.5C 258.607,600.286 256.941,603.952 255,607.5C 252.305,609.694 249.472,611.694 246.5,613.5C 245.833,616.977 245.166,620.311 244.5,623.5C 244.817,620.428 244.484,617.428 243.5,614.5C 233.347,619.075 223.014,619.575 212.5,616C 210.156,615.163 208.156,613.829 206.5,612C 200.174,612.341 197.174,609.341 197.5,603C 197.58,601.106 197.913,599.273 198.5,597.5C 192.899,595.002 192.066,591.336 196,586.5C 197.925,585.12 199.759,583.62 201.5,582C 198.716,581.564 197.55,580.064 198,577.5C 202.139,573 207.306,571 213.5,571.5C 213.832,566.49 216.332,563.156 221,561.5C 221.945,561.905 222.612,562.572 223,563.5C 225.398,560.946 227.731,560.946 230,563.5C 233.509,558.162 238.342,556.328 244.5,558C 245.337,559.011 245.67,560.178 245.5,561.5C 246.5,561.5 247.5,561.5 248.5,561.5 Z"/></g>
<g><path style="opacity:1" fill="#0663ae" d="M 547.5,499.5 C 599.168,499.333 650.834,499.5 702.5,500C 711.096,502.929 716.596,508.763 719,517.5C 719.667,567.833 719.667,618.167 719,668.5C 716.421,679.411 709.587,685.911 698.5,688C 649.5,688.667 600.5,688.667 551.5,688C 540.425,685.924 533.592,679.424 531,668.5C 530.333,617.833 530.333,567.167 531,516.5C 534.019,508.316 539.519,502.649 547.5,499.5 Z"/></g>
<g><path style="opacity:1" fill="#fdfdfc" d="M 650.5,653.5 C 650.167,653.5 649.833,653.5 649.5,653.5C 648.5,653.5 647.5,653.5 646.5,653.5C 646.5,657.167 646.5,660.833 646.5,664.5C 646.167,664.5 645.833,664.5 645.5,664.5C 645.815,660.629 645.482,656.962 644.5,653.5C 643.167,653.167 641.833,652.833 640.5,652.5C 638.95,651.559 637.284,650.893 635.5,650.5C 634.205,649.512 632.872,648.512 631.5,647.5C 631.158,646.662 630.492,646.328 629.5,646.5C 628.671,645.668 627.838,646.001 627,647.5C 626.501,653.157 626.334,658.824 626.5,664.5C 625.833,659.319 625.167,653.985 624.5,648.5C 605.153,655.661 592.82,649.327 587.5,629.5C 599.942,624.353 607.442,615.02 610,601.5C 610.488,593.469 610.488,585.469 610,577.5C 614.517,582.344 620.017,584.178 626.5,583C 631.298,576.782 630.298,571.782 623.5,568C 619.859,566.731 616.192,565.564 612.5,564.5C 601.524,578.357 588.191,581.19 572.5,573C 566.666,568.493 563,562.66 561.5,555.5C 562.104,532.561 573.771,522.561 596.5,525.5C 600.684,522.833 605.017,520.333 609.5,518C 619.643,516.024 627.643,519.191 633.5,527.5C 647.873,517.128 661.04,518.461 673,531.5C 675.496,535.351 676.996,539.517 677.5,544C 696.062,545.563 706.396,555.563 708.5,574C 708.04,584.752 703.707,593.585 695.5,600.5C 704.667,613.824 703,625.657 690.5,636C 684.163,639.473 677.496,640.306 670.5,638.5C 666.038,646.652 659.372,651.652 650.5,653.5 Z"/></g>
<g><path style="opacity:1" fill="#080809" d="M 227.5,569.5 C 230.85,569.335 234.183,569.502 237.5,570C 238,570.5 238.5,571 239,571.5C 239.726,576.239 239.393,580.905 238,585.5C 229.487,591.846 222.82,590.18 218,580.5C 217.333,579.167 217.333,577.833 218,576.5C 220.79,573.535 223.957,571.202 227.5,569.5 Z"/></g>
<g><path style="opacity:1" fill="#e1ecf1" d="M 434.5,580.5 C 438.989,575.787 438.155,572.454 432,570.5C 430.289,570.439 428.956,571.106 428,572.5C 427.444,574.885 427.61,577.218 428.5,579.5C 424.533,576.124 424.533,572.624 428.5,569C 436.823,566.655 439.99,569.821 438,578.5C 437.184,579.823 436.017,580.489 434.5,580.5 Z"/></g>
<g><path style="opacity:1" fill="#101012" d="M 400.5,577.5 C 397.167,580.167 393.833,580.167 390.5,577.5C 389.742,573.267 391.409,570.601 395.5,569.5C 399.591,570.601 401.258,573.267 400.5,577.5 Z"/></g>
<g><path style="opacity:1" fill="#101011" d="M 434.5,580.5 C 432.435,580.483 430.435,580.15 428.5,579.5C 427.61,577.218 427.444,574.885 428,572.5C 428.956,571.106 430.289,570.439 432,570.5C 438.155,572.454 438.989,575.787 434.5,580.5 Z"/></g>
<g><path style="opacity:1" fill="#a2afd9" d="M 913.5,565.5 C 915.344,566.204 915.844,567.537 915,569.5C 912.394,575.162 909.894,580.828 907.5,586.5C 906.5,586.5 905.5,586.5 904.5,586.5C 906.688,579.128 909.688,572.128 913.5,565.5 Z"/></g>
<g><path style="opacity:1" fill="#ebf2f5" d="M 400.5,577.5 C 401.258,573.267 399.591,570.601 395.5,569.5C 391.409,570.601 389.742,573.267 390.5,577.5C 387.786,572.576 389.286,569.243 395,567.5C 401.441,568.724 403.274,572.057 400.5,577.5 Z"/></g>
<g><path style="opacity:1" fill="#9baad7" d="M 789.5,566.5 C 790.5,566.5 791.5,566.5 792.5,566.5C 792.5,573.167 792.5,579.833 792.5,586.5C 791.167,586.5 789.833,586.5 788.5,586.5C 788.5,581.833 788.5,577.167 788.5,572.5C 786.654,572.778 785.32,572.111 784.5,570.5C 786.015,568.918 787.681,567.584 789.5,566.5 Z"/></g>
<g><path style="opacity:1" fill="#9faed8" d="M 833.5,566.5 C 834.5,566.5 835.5,566.5 836.5,566.5C 836.5,573.167 836.5,579.833 836.5,586.5C 834.856,586.714 833.356,586.38 832,585.5C 831.501,581.179 831.334,576.846 831.5,572.5C 830.5,572.5 829.5,572.5 828.5,572.5C 828.351,571.448 828.517,570.448 829,569.5C 830.652,568.601 832.152,567.601 833.5,566.5 Z"/></g>
<g><path style="opacity:1" fill="#9fadd8" d="M 814.5,572.5 C 816.722,572.178 818.556,572.845 820,574.5C 821.444,572.845 823.278,572.178 825.5,572.5C 825.318,574.675 824.651,576.675 823.5,578.5C 825.054,580.944 826.054,583.611 826.5,586.5C 823.192,587.026 821.026,585.693 820,582.5C 818.741,586.223 816.408,587.223 813,585.5C 813.59,583.186 814.757,581.019 816.5,579C 814.987,577.121 814.321,574.954 814.5,572.5 Z"/></g>
<g><path style="opacity:1" fill="#9dacd8" d="M 801.5,566.5 C 804.545,566.508 807.545,566.841 810.5,567.5C 810.5,568.833 810.5,570.167 810.5,571.5C 808.599,571.567 806.766,571.233 805,570.5C 802.277,571.208 801.277,572.875 802,575.5C 809.678,572.844 812.678,575.51 811,583.5C 801.949,589.385 797.449,586.885 797.5,576C 797.667,574.167 797.833,572.333 798,570.5C 799.376,569.295 800.542,567.962 801.5,566.5 Z"/></g>
<g><path style="opacity:1" fill="#f8f9fa" d="M 803.5,577.5 C 806.956,578.536 807.29,580.203 804.5,582.5C 802.296,581.218 801.962,579.551 803.5,577.5 Z"/></g>
<g><path style="opacity:1" fill="#fcfcfc" d="M 450.5,597.5 C 453.302,603.385 452.802,609.052 449,614.5C 446.999,617.331 444.833,619.997 442.5,622.5C 440.716,622.893 439.05,623.559 437.5,624.5C 420.844,632.454 404.178,632.454 387.5,624.5C 386.791,623.596 385.791,623.263 384.5,623.5C 376.425,617.277 373.759,609.277 376.5,599.5C 383.825,590.998 393.158,585.831 404.5,584C 422.164,581.077 437.497,585.577 450.5,597.5 Z"/></g>
<g><path style="opacity:1" fill="#a3b1da" d="M 844.5,566.5 C 847.249,566.274 849.916,566.607 852.5,567.5C 853.429,568.689 853.762,570.022 853.5,571.5C 851.738,571.643 850.071,571.309 848.5,570.5C 846.276,571.081 845.443,572.414 846,574.5C 853.078,573.252 855.745,576.252 854,583.5C 849.244,587.808 844.91,587.474 841,582.5C 839.52,576.451 840.686,571.118 844.5,566.5 Z"/></g>
<g><path style="opacity:1" fill="#9caad6" d="M 880.5,572.5 C 883.332,573.721 886.165,573.721 889,572.5C 890.711,572.439 892.044,573.106 893,574.5C 896.339,571.701 899.339,572.034 902,575.5C 902.499,579.152 902.665,582.818 902.5,586.5C 901.167,586.5 899.833,586.5 898.5,586.5C 898.665,583.482 898.498,580.482 898,577.5C 896.667,576.167 895.333,576.167 894,577.5C 893.502,580.482 893.335,583.482 893.5,586.5C 892.167,586.5 890.833,586.5 889.5,586.5C 889.665,583.482 889.498,580.482 889,577.5C 887.667,576.167 886.333,576.167 885,577.5C 884.502,580.482 884.335,583.482 884.5,586.5C 883.167,586.5 881.833,586.5 880.5,586.5C 880.5,581.833 880.5,577.167 880.5,572.5 Z"/></g>
<g><path style="opacity:1" fill="#a0adda" d="M 868.5,572.5 C 871.249,572.274 873.916,572.607 876.5,573.5C 877.429,574.689 877.762,576.022 877.5,577.5C 875.266,577.62 873.099,577.287 871,576.5C 867.597,578.72 867.764,580.72 871.5,582.5C 873.409,581.652 875.409,581.318 877.5,581.5C 877.773,583.451 877.107,584.951 875.5,586C 869.513,587.515 865.513,585.348 863.5,579.5C 864.065,576.284 865.732,573.951 868.5,572.5 Z"/></g>
<g><path style="opacity:1" fill="#4097ad" d="M 406.5,587.5 C 410.295,586.959 412.295,588.625 412.5,592.5C 409.833,599.167 407.167,599.167 404.5,592.5C 404.902,590.7 405.569,589.033 406.5,587.5 Z"/></g>
<g><path style="opacity:1" fill="#3793ac" d="M 416.5,587.5 C 419.465,587.73 420.798,589.397 420.5,592.5C 420.28,596.353 418.447,597.353 415,595.5C 414.109,592.502 414.609,589.836 416.5,587.5 Z"/></g>
<g><path style="opacity:1" fill="#fce15b" d="M 561.5,555.5 C 563,562.66 566.666,568.493 572.5,573C 588.191,581.19 601.524,578.357 612.5,564.5C 616.192,565.564 619.859,566.731 623.5,568C 630.298,571.782 631.298,576.782 626.5,583C 620.017,584.178 614.517,582.344 610,577.5C 610.488,585.469 610.488,593.469 610,601.5C 607.442,615.02 599.942,624.353 587.5,629.5C 561.626,630.125 549.459,617.458 551,591.5C 552.603,583.858 555.103,576.525 558.5,569.5C 554.769,569.545 550.769,569.379 546.5,569C 539.599,564.233 539.933,559.899 547.5,556C 552.144,554.334 556.811,554.167 561.5,555.5 Z"/></g>
<g><path style="opacity:1" fill="#100f12" d="M 595.5,585.5 C 601.637,586.641 602.97,589.975 599.5,595.5C 594.011,595.496 592.178,592.829 594,587.5C 594.278,586.584 594.778,585.918 595.5,585.5 Z"/></g>
<g><path style="opacity:1" fill="#f8c4b1" d="M 556.5,587.5 C 560.138,586.737 561.638,588.07 561,591.5C 556.777,592.989 555.277,591.655 556.5,587.5 Z"/></g>
<g><path style="opacity:1" fill="#f5f5f1" d="M 595.5,585.5 C 602.189,583.681 605.022,586.348 604,593.5C 602.89,595.037 601.39,595.703 599.5,595.5C 602.97,589.975 601.637,586.641 595.5,585.5 Z"/></g>
<g><path style="opacity:1" fill="#f4f1e9" d="M 565.5,578.5 C 568.102,577.031 570.269,577.698 572,580.5C 573.754,585.382 572.254,588.382 567.5,589.5C 570.674,585.042 570.008,581.375 565.5,578.5 Z"/></g>
<g><path style="opacity:1" fill="#110f12" d="M 565.5,578.5 C 570.008,581.375 570.674,585.042 567.5,589.5C 561.546,588.305 560.046,584.972 563,579.5C 563.671,578.748 564.504,578.414 565.5,578.5 Z"/></g>
<g><path style="opacity:1" fill="#fbf9f4" d="M 574.5,595.5 C 582.823,594.493 587.156,598.16 587.5,606.5C 586.814,616.998 581.481,620.832 571.5,618C 568.234,615.464 566.9,612.131 567.5,608C 567.122,602.251 569.456,598.084 574.5,595.5 Z"/></g>
<g><path style="opacity:1" fill="#19191b" d="M 573.5,599.5 C 576.399,601.146 579.399,601.812 582.5,601.5C 582,602.881 581,603.547 579.5,603.5C 577.803,603.101 576.137,602.601 574.5,602C 573.748,601.329 573.414,600.496 573.5,599.5 Z"/></g>
<g><path style="opacity:1" fill="#f8c4b2" d="M 602.5,596.5 C 607.89,597.25 608.557,599.25 604.5,602.5C 601.61,601.163 600.943,599.163 602.5,596.5 Z"/></g>
<g><path style="opacity:1" fill="#b28858" d="M 215.5,599.5 C 216.074,601.788 217.074,603.955 218.5,606C 221.804,607.042 223.971,605.875 225,602.5C 225.711,604.367 225.211,605.867 223.5,607C 217.165,608.5 214.499,606 215.5,599.5 Z"/></g>
<g><path style="opacity:1" fill="#a3afda" d="M 878.5,601.5 C 881.32,605.224 880.654,608.557 876.5,611.5C 876.066,608.084 876.733,604.751 878.5,601.5 Z"/></g>
<g><path style="opacity:1" fill="#a6b3da" d="M 872.5,601.5 C 873.5,601.5 874.5,601.5 875.5,601.5C 875.629,605.628 874.129,608.961 871,611.5C 870.5,611.167 870,610.833 869.5,610.5C 870.877,607.596 871.877,604.596 872.5,601.5 Z"/></g>
<g><path style="opacity:1" fill="#a2afd9" d="M 857.5,602.5 C 860.32,602.248 862.986,602.748 865.5,604C 866.337,605.011 866.67,606.178 866.5,607.5C 864.801,607.38 863.135,607.046 861.5,606.5C 858.918,606.747 858.085,608.08 859,610.5C 866.078,609.252 868.745,612.252 867,619.5C 863.547,622.769 859.714,623.269 855.5,621C 852.317,614.32 852.984,608.153 857.5,602.5 Z"/></g>
<g><path style="opacity:1" fill="#b07e4b" d="M 248.5,561.5 C 247.5,561.5 246.5,561.5 245.5,561.5C 245.67,560.178 245.337,559.011 244.5,558C 238.342,556.328 233.509,558.162 230,563.5C 227.731,560.946 225.398,560.946 223,563.5C 222.612,562.572 221.945,561.905 221,561.5C 216.332,563.156 213.832,566.49 213.5,571.5C 207.306,571 202.139,573 198,577.5C 197.55,580.064 198.716,581.564 201.5,582C 199.759,583.62 197.925,585.12 196,586.5C 192.066,591.336 192.899,595.002 198.5,597.5C 197.913,599.273 197.58,601.106 197.5,603C 197.174,609.341 200.174,612.341 206.5,612C 208.156,613.829 210.156,615.163 212.5,616C 223.014,619.575 233.347,619.075 243.5,614.5C 244.484,617.428 244.817,620.428 244.5,623.5C 243.343,626.273 242.676,629.273 242.5,632.5C 240.901,632.232 239.568,632.566 238.5,633.5C 231.282,635.776 224.615,639.109 218.5,643.5C 217.859,639.67 216.193,639.004 213.5,641.5C 212.447,644.815 212.447,648.148 213.5,651.5C 212.849,650.909 212.182,650.243 211.5,649.5C 209.517,650.982 207.684,652.649 206,654.5C 204.977,663.242 201.811,671.075 196.5,678C 198.5,678.333 200.5,678.667 202.5,679C 204.211,680.133 204.711,681.633 204,683.5C 191.999,686.801 179.832,687.301 167.5,685C 151.84,677.85 144.84,665.683 146.5,648.5C 147.517,645.306 148.85,642.139 150.5,639C 149.944,638.617 149.611,638.117 149.5,637.5C 154.727,632.475 160.727,628.308 167.5,625C 177.251,624.913 184.085,620.413 188,611.5C 191.631,595.733 191.298,580.066 187,564.5C 186.637,560.134 186.637,555.801 187,551.5C 184.857,549.529 182.357,548.196 179.5,547.5C 175.43,556.405 168.93,562.738 160,566.5C 156.718,565.885 154.718,563.885 154,560.5C 153.149,550.318 157.649,543.485 167.5,540C 171.761,538.637 176.095,538.304 180.5,539C 183.968,540.97 187.301,543.136 190.5,545.5C 198.105,536.531 207.772,531.531 219.5,530.5C 219.87,526.648 220.87,522.981 222.5,519.5C 228.851,514.722 235.351,514.389 242,518.5C 243.631,520.955 243.797,523.455 242.5,526C 236.881,527.022 231.214,527.855 225.5,528.5C 225.069,529.293 224.735,530.127 224.5,531C 234.781,539.406 242.781,549.573 248.5,561.5 Z"/></g>
<g><path style="opacity:1" fill="#f0ede8" d="M 198.5,555.5 C 205.632,555.802 208.465,559.469 207,566.5C 197.81,571.996 193.81,569.329 195,558.5C 196.145,557.364 197.312,556.364 198.5,555.5 Z"/></g>
<g><path style="opacity:1" fill="#090a0c" d="M 199.5,558.5 C 206.486,558.331 208.153,561.164 204.5,567C 197.416,567.475 195.749,564.642 199.5,558.5 Z"/></g>
<g><path style="opacity:1" fill="#f9f4ec" d="M 236.5,554.5 C 235.681,547.179 232.514,545.846 227,550.5C 226.509,555.179 228.675,557.512 233.5,557.5C 226.515,559.025 223.348,556.025 224,548.5C 228.251,543.274 232.585,543.274 237,548.5C 237.789,550.712 237.622,552.712 236.5,554.5 Z"/></g>
<g><path style="opacity:1" fill="#18191c" d="M 236.5,554.5 C 235.167,555.167 234.167,556.167 233.5,557.5C 228.675,557.512 226.509,555.179 227,550.5C 232.514,545.846 235.681,547.179 236.5,554.5 Z"/></g>
<g><path style="opacity:1" fill="#9dacd8" d="M 838.5,608.5 C 840.722,608.178 842.556,608.845 844,610.5C 845.444,608.845 847.278,608.178 849.5,608.5C 849.219,610.963 848.219,613.13 846.5,615C 848.54,617.185 849.874,619.685 850.5,622.5C 847.192,623.026 845.026,621.693 844,618.5C 842.741,622.223 840.408,623.223 837,621.5C 837.59,619.186 838.757,617.019 840.5,615C 838.987,613.121 838.321,610.954 838.5,608.5 Z"/></g>
<g><path style="opacity:1" fill="#a2afda" d="M 824.5,602.5 C 827.249,602.274 829.916,602.607 832.5,603.5C 833.429,604.689 833.762,606.022 833.5,607.5C 831.738,607.643 830.071,607.309 828.5,606.5C 826.276,607.081 825.443,608.414 826,610.5C 833.991,609.517 836.324,612.851 833,620.5C 829.692,622.993 826.192,623.159 822.5,621C 819.361,614.35 820.028,608.183 824.5,602.5 Z"/></g>
<g><path style="opacity:1" fill="#57c1df" d="M 384.5,623.5 C 385.791,623.263 386.791,623.596 387.5,624.5C 387.721,625.735 388.388,626.735 389.5,627.5C 388.098,628.842 388.431,629.676 390.5,630C 389.288,635.455 389.288,640.955 390.5,646.5C 391.093,653.61 393.093,660.277 396.5,666.5C 392.646,666.841 389.146,668.174 386,670.5C 386.138,662.393 382.305,657.726 374.5,656.5C 373.778,656.082 373.278,655.416 373,654.5C 372.98,648.771 372.814,643.104 372.5,637.5C 372.833,637.5 373.167,637.5 373.5,637.5C 374.222,637.918 374.722,638.584 375,639.5C 375.333,643.5 375.667,647.5 376,651.5C 376.667,652.167 377.333,652.833 378,653.5C 377.933,645.011 378.933,636.678 381,628.5C 382.03,626.654 383.196,624.987 384.5,623.5 Z"/></g>
<g><path style="opacity:1" fill="#8ad0e9" d="M 387.5,624.5 C 404.178,632.454 420.844,632.454 437.5,624.5C 438.074,630.484 438.407,636.484 438.5,642.5C 429.646,634.951 419.312,632.117 407.5,634C 400.831,636.84 395.164,641.007 390.5,646.5C 389.288,640.955 389.288,635.455 390.5,630C 388.431,629.676 388.098,628.842 389.5,627.5C 388.388,626.735 387.721,625.735 387.5,624.5 Z"/></g>
<g><path style="opacity:1" fill="#fcfbfa" d="M 238.5,633.5 C 239.873,633.343 241.207,633.51 242.5,634C 241.18,639.116 239.18,643.949 236.5,648.5C 234.909,651.352 233.576,654.352 232.5,657.5C 228.762,660.235 225.762,663.568 223.5,667.5C 221.405,659.601 219.739,651.601 218.5,643.5C 224.615,639.109 231.282,635.776 238.5,633.5 Z"/></g>
<g><path style="opacity:1" fill="#fdfdfd" d="M 438.5,642.5 C 438.922,650.693 437.922,658.693 435.5,666.5C 433.285,669.596 431.619,672.929 430.5,676.5C 420.699,679.571 410.699,680.238 400.5,678.5C 400.862,673.901 399.529,669.901 396.5,666.5C 393.093,660.277 391.093,653.61 390.5,646.5C 395.164,641.007 400.831,636.84 407.5,634C 419.312,632.117 429.646,634.951 438.5,642.5 Z"/></g>
<g><path style="opacity:1" fill="#161618" d="M 373.5,637.5 C 373.167,637.5 372.833,637.5 372.5,637.5C 369.193,636.949 365.86,636.616 362.5,636.5C 362.784,634.123 362.784,631.956 362.5,630C 363.167,629.333 363.833,628.667 364.5,628C 363.289,627.107 363.289,626.274 364.5,625.5C 368.942,628.37 371.942,632.37 373.5,637.5 Z"/></g>
<g><path style="opacity:1" fill="#93613a" d="M 149.5,637.5 C 149.611,638.117 149.944,638.617 150.5,639C 148.85,642.139 147.517,645.306 146.5,648.5C 140.005,643.245 136.005,636.412 134.5,628C 134.759,626.739 135.426,625.739 136.5,625C 135.692,624.692 135.025,624.192 134.5,623.5C 135.5,622.833 136.5,622.167 137.5,621.5C 134.585,616.014 135.919,611.681 141.5,608.5C 142.33,614.472 142.83,620.472 143,626.5C 144.157,630.822 146.324,634.489 149.5,637.5 Z"/></g>
<g><path style="opacity:1" fill="#5dc0dd" d="M 442.5,622.5 C 445.269,625.779 447.436,629.445 449,633.5C 450.801,641.426 451.967,649.426 452.5,657.5C 448.263,660.671 445.929,665.004 445.5,670.5C 442.36,668.594 439.027,667.26 435.5,666.5C 437.922,658.693 438.922,650.693 438.5,642.5C 438.407,636.484 438.074,630.484 437.5,624.5C 439.05,623.559 440.716,622.893 442.5,622.5 Z"/></g>
<g><path style="opacity:1" fill="#fde122" d="M 629.5,646.5 C 629.5,652.5 629.5,658.5 629.5,664.5C 628.5,664.5 627.5,664.5 626.5,664.5C 626.334,658.824 626.501,653.157 627,647.5C 627.838,646.001 628.671,645.668 629.5,646.5 Z"/></g>
<g><path style="opacity:1" fill="#0e0d0e" d="M 374.5,656.5 C 382.305,657.726 386.138,662.393 386,670.5C 389.146,668.174 392.646,666.841 396.5,666.5C 399.529,669.901 400.862,673.901 400.5,678.5C 396.204,679.463 391.871,679.629 387.5,679C 386.299,678.097 385.465,676.931 385,675.5C 379.165,679.854 373.832,679.188 369,673.5C 366.247,669.667 365.914,665.667 368,661.5C 370.326,659.934 372.492,658.268 374.5,656.5 Z"/></g>
<g><path style="opacity:1" fill="#f8da3e" d="M 631.5,647.5 C 632.872,648.512 634.205,649.512 635.5,650.5C 635.5,655.5 635.5,660.5 635.5,665.5C 634.167,665.5 632.833,665.5 631.5,665.5C 631.5,659.5 631.5,653.5 631.5,647.5 Z"/></g>
<g><path style="opacity:1" fill="#f2d646" d="M 640.5,652.5 C 641.833,652.833 643.167,653.167 644.5,653.5C 644.5,657.167 644.5,660.833 644.5,664.5C 643.167,664.5 641.833,664.5 640.5,664.5C 640.5,660.5 640.5,656.5 640.5,652.5 Z"/></g>
<g><path style="opacity:1" fill="#fedf2f" d="M 649.5,653.5 C 649.5,657.167 649.5,660.833 649.5,664.5C 648.5,664.5 647.5,664.5 646.5,664.5C 646.5,660.833 646.5,657.167 646.5,653.5C 647.5,653.5 648.5,653.5 649.5,653.5 Z"/></g>
<g><path style="opacity:1" fill="#919788" d="M 649.5,653.5 C 649.833,653.5 650.167,653.5 650.5,653.5C 650.5,657.5 650.5,661.5 650.5,665.5C 648.901,665.768 647.568,665.434 646.5,664.5C 647.5,664.5 648.5,664.5 649.5,664.5C 649.5,660.833 649.5,657.167 649.5,653.5 Z"/></g>
<g><path style="opacity:1" fill="#936038" d="M 218.5,643.5 C 219.739,651.601 221.405,659.601 223.5,667.5C 224.294,670.802 224.96,674.135 225.5,677.5C 230.063,677.72 231.73,679.887 230.5,684C 225.572,685.643 222.072,684.143 220,679.5C 216.258,670.53 214.091,661.197 213.5,651.5C 212.447,648.148 212.447,644.815 213.5,641.5C 216.193,639.004 217.859,639.67 218.5,643.5 Z"/></g>
<g><path style="opacity:1" fill="#21211e" d="M 626.5,664.5 C 627.5,664.5 628.5,664.5 629.5,664.5C 629.5,665.833 629.5,667.167 629.5,668.5C 625.503,670.072 624.503,668.738 626.5,664.5 Z"/></g>
<g><path style="opacity:1" fill="#0e0d0d" d="M 452.5,657.5 C 465.222,658.683 467.889,664.516 460.5,675C 456.849,678.227 452.849,678.894 448.5,677C 447.874,676.25 447.374,675.416 447,674.5C 445.968,679.299 442.968,681.299 438,680.5C 435.833,680.333 433.667,680.167 431.5,680C 430.663,678.989 430.33,677.822 430.5,676.5C 431.619,672.929 433.285,669.596 435.5,666.5C 439.027,667.26 442.36,668.594 445.5,670.5C 445.929,665.004 448.263,660.671 452.5,657.5 Z"/></g>
<g><path style="opacity:1" fill="#565656" d="M 451.5,663.5 C 458.591,663.187 460.925,666.353 458.5,673C 455.652,675.521 452.652,675.854 449.5,674C 448.169,670.153 448.836,666.653 451.5,663.5 Z"/></g>
<g><path style="opacity:1" fill="#10151c" d="M 631.5,665.5 C 632.833,665.5 634.167,665.5 635.5,665.5C 635.762,666.978 635.429,668.311 634.5,669.5C 633.575,668.359 632.741,668.359 632,669.5C 631.51,668.207 631.343,666.873 631.5,665.5 Z"/></g>
<g><path style="opacity:1" fill="#1d2632" d="M 640.5,664.5 C 641.833,664.5 643.167,664.5 644.5,664.5C 644.66,666.199 644.494,667.866 644,669.5C 642.989,668.663 641.822,668.33 640.5,668.5C 640.5,667.167 640.5,665.833 640.5,664.5 Z"/></g>
<g><path style="opacity:1" fill="#565657" d="M 375.5,663.5 C 382.271,664.307 384.271,667.973 381.5,674.5C 378.052,676.59 374.886,675.924 372,672.5C 370.665,668.392 371.832,665.392 375.5,663.5 Z"/></g>
<g><path style="opacity:1" fill="#1a374e" d="M 645.5,664.5 C 645.833,664.5 646.167,664.5 646.5,664.5C 647.568,665.434 648.901,665.768 650.5,665.5C 650.5,666.833 650.5,668.167 650.5,669.5C 648.833,669.5 647.167,669.5 645.5,669.5C 645.5,667.833 645.5,666.167 645.5,664.5 Z"/></g>
<g><path style="opacity:1" fill="#926038" d="M 236.5,648.5 C 239.777,655.894 242.61,663.56 245,671.5C 249.613,671.769 251.613,674.103 251,678.5C 247.435,680.053 244.101,679.72 241,677.5C 238.042,670.762 235.208,664.096 232.5,657.5C 233.576,654.352 234.909,651.352 236.5,648.5 Z"/></g>
<g><path style="opacity:1" fill="#d2d705" d="M 341.5,719.5 C 391.501,719.333 441.501,719.5 491.5,720C 501.973,722.473 508.473,728.973 511,739.5C 511.667,789.167 511.667,838.833 511,888.5C 508.774,898.815 502.608,905.315 492.5,908C 441.833,908.667 391.167,908.667 340.5,908C 331.771,905.605 325.938,900.105 323,891.5C 322.333,839.833 322.333,788.167 323,736.5C 326.19,727.472 332.356,721.806 341.5,719.5 Z"/></g>
<g><path style="opacity:1" fill="#28b3ab" d="M 543.5,722.5 C 595.501,722.333 647.501,722.5 699.5,723C 707.766,725.599 712.932,731.099 715,739.5C 715.667,790.833 715.667,842.167 715,893.5C 712.833,902.333 707.333,907.833 698.5,910C 646.833,910.667 595.167,910.667 543.5,910C 534.016,906.851 528.516,900.351 527,890.5C 526.333,840.5 526.333,790.5 527,740.5C 529.592,731.745 535.092,725.745 543.5,722.5 Z"/></g>
<g><path style="opacity:1" fill="#fefdfc" d="M 340.5,730.5 C 353.92,731.584 366.253,735.751 377.5,743C 386.925,752.679 393.092,764.179 396,777.5C 398.93,775.745 402.097,774.578 405.5,774C 412.553,773.45 419.553,773.45 426.5,774C 437.639,758.216 452.639,747.882 471.5,743C 478.721,741.183 486.054,740.349 493.5,740.5C 494.631,761.085 486.298,776.252 468.5,786C 460.136,789.339 451.47,791.506 442.5,792.5C 443.667,794.833 444.833,797.167 446,799.5C 450.3,802.798 454.3,806.465 458,810.5C 458.617,811.449 458.451,812.282 457.5,813C 460.572,817.255 461.072,821.755 459,826.5C 458.333,825.167 457.667,825.167 457,826.5C 455.062,832.212 452.229,837.379 448.5,842C 457.131,857.956 454.798,871.956 441.5,884C 444.167,884.333 446.833,884.667 449.5,885C 453.658,889.391 452.992,893.058 447.5,896C 442.143,896.678 436.809,896.511 431.5,895.5C 427.296,897.242 422.962,897.742 418.5,897C 416,895.833 414.167,894 413,891.5C 407.868,897.994 401.868,898.994 395,894.5C 388.571,896.026 382.071,896.526 375.5,896C 371.153,892.916 370.487,889.249 373.5,885C 376.5,884.667 379.5,884.333 382.5,884C 368.01,872.015 365.676,857.849 375.5,841.5C 368.436,833.589 364.769,824.589 364.5,814.5C 369.096,810.282 373.596,805.948 378,801.5C 379.557,798.828 380.724,795.995 381.5,793C 380.66,791.233 379.327,789.899 377.5,789C 365.719,785.202 356.219,778.369 349,768.5C 342.894,756.456 340.06,743.789 340.5,730.5 Z"/></g>
<g><path style="opacity:1" fill="#f7c6dd" d="M 234.5,828.5 C 224.514,829.424 214.514,829.59 204.5,829C 181.955,822.76 171.622,807.927 173.5,784.5C 174.967,780.298 175.967,775.965 176.5,771.5C 172.537,771.911 168.87,771.078 165.5,769C 163,766.5 160.5,764 158,761.5C 157.251,760.365 157.417,759.365 158.5,758.5C 165.495,753.607 173.162,752.274 181.5,754.5C 197.39,745.942 214.39,740.942 232.5,739.5C 232.758,734.903 234.758,731.236 238.5,728.5C 242.5,726.981 246.5,725.814 250.5,725C 253.219,729.432 254.052,734.265 253,739.5C 252.378,741.731 251.211,743.565 249.5,745C 256.931,750.427 263.764,756.593 270,763.5C 281.835,786.324 277.002,804.824 255.5,819C 248.646,822.666 241.646,825.832 234.5,828.5 Z"/></g>
<g><path style="opacity:1" fill="#101012" d="M 241.5,755.5 C 248.745,755.555 250.745,758.722 247.5,765C 242.842,766.187 240.175,764.353 239.5,759.5C 239.752,757.927 240.418,756.594 241.5,755.5 Z"/></g>
<g><path style="opacity:1" fill="#fdeddd" d="M 466.5,757.5 C 470.226,757.177 473.893,757.511 477.5,758.5C 474.704,761.796 472.537,765.463 471,769.5C 467.07,773.219 463.236,777.053 459.5,781C 452.014,784.002 444.347,784.835 436.5,783.5C 435.386,782.277 435.219,780.944 436,779.5C 443.495,768.347 453.662,761.014 466.5,757.5 Z"/></g>
<g><path style="opacity:1" fill="#09080a" d="M 191.5,773.5 C 199.486,772.998 201.486,776.165 197.5,783C 190.983,782.951 188.983,779.784 191.5,773.5 Z"/></g>
<g><path style="opacity:1" fill="#f19ac1" d="M 228.5,772.5 C 236.966,770.657 243.466,773.323 248,780.5C 249.592,788.733 246.758,794.899 239.5,799C 236.624,799.438 233.957,800.438 231.5,802C 218.772,804.255 212.605,799.088 213,786.5C 213.94,784.058 215.106,781.725 216.5,779.5C 220.31,776.603 224.31,774.27 228.5,772.5 Z"/></g>
<g><path style="opacity:1" fill="#fdedde" d="M 352.5,746.5 C 370.136,750.632 381.969,761.298 388,778.5C 389.197,782.919 387.697,785.419 383.5,786C 372.631,779.724 363.631,771.391 356.5,761C 354.619,756.307 353.285,751.474 352.5,746.5 Z"/></g>
<g><path style="opacity:1" fill="#ea5d9c" d="M 230.5,777.5 C 237.881,778.871 240.881,783.205 239.5,790.5C 236.718,791.952 234.218,791.619 232,789.5C 229.634,785.657 229.134,781.657 230.5,777.5 Z"/></g>
<g><path style="opacity:1" fill="#f199c1" d="M 173.5,784.5 C 171.622,807.927 181.955,822.76 204.5,829C 214.514,829.59 224.514,829.424 234.5,828.5C 231.857,842.515 231.857,856.515 234.5,870.5C 229.547,871.329 224.547,871.663 219.5,871.5C 217.122,867.753 214.955,863.753 213,859.5C 210.2,863.733 208.7,868.399 208.5,873.5C 209.5,873.5 210.5,873.5 211.5,873.5C 211.5,875.833 211.5,878.167 211.5,880.5C 200.341,881.659 189.008,881.826 177.5,881C 170.321,879.659 163.821,876.825 158,872.5C 152.875,877.647 146.708,879.813 139.5,879C 134.992,877.753 131.659,875.086 129.5,871C 124.408,869.33 124.408,868.497 129.5,868.5C 128.056,860.804 131.056,856.971 138.5,857C 140.988,859.627 141.155,862.46 139,865.5C 137.104,867.53 134.937,869.197 132.5,870.5C 139.254,878.151 146.421,878.484 154,871.5C 154.667,870.5 154.667,869.5 154,868.5C 144.774,858.7 140.607,847.034 141.5,833.5C 140.765,815.86 147.098,801.36 160.5,790C 164.635,787.597 168.968,785.763 173.5,784.5 Z"/></g>
<g><path style="opacity:1" fill="#ea5e9c" d="M 221.5,783.5 C 224.642,783.799 226.809,785.466 228,788.5C 228.758,790.769 228.591,792.936 227.5,795C 226.5,795.667 225.5,795.667 224.5,795C 221.316,791.634 220.316,787.801 221.5,783.5 Z"/></g>
<g><path style="opacity:1" fill="#0f0f11" d="M 429.5,799.5 C 435.643,800.026 436.976,802.86 433.5,808C 428.504,808.664 426.67,806.498 428,801.5C 428.717,800.956 429.217,800.289 429.5,799.5 Z"/></g>
<g><path style="opacity:1" fill="#0e0e10" d="M 392.5,799.5 C 398.643,800.026 399.976,802.86 396.5,808C 391.504,808.664 389.67,806.498 391,801.5C 391.717,800.956 392.217,800.289 392.5,799.5 Z"/></g>
<g><path style="opacity:1" fill="#dfdc0c" d="M 634.5,862.5 C 637.14,859.692 637.973,856.359 637,852.5C 636.692,853.308 636.192,853.975 635.5,854.5C 636.016,853.242 635.35,852.242 633.5,851.5C 633.167,852.167 632.833,852.833 632.5,853.5C 629.591,853.014 627.925,851.347 627.5,848.5C 627.733,847.068 628.4,846.568 629.5,847C 628.397,848.68 628.73,850.18 630.5,851.5C 631.711,850.726 631.711,849.893 630.5,849C 632.228,849.353 633.894,849.519 635.5,849.5C 637.938,847.344 638.105,845.011 636,842.5C 635.692,843.308 635.192,843.975 634.5,844.5C 631.607,842.721 630.44,840.388 631,837.5C 629.927,838.28 628.76,838.113 627.5,837C 628.308,836.692 628.975,836.192 629.5,835.5C 629.154,834.304 628.654,834.304 628,835.5C 627.51,834.207 627.343,832.873 627.5,831.5C 626.178,831.67 625.011,831.337 624,830.5C 621.939,833.902 619.439,834.068 616.5,831C 614.167,830.333 611.833,830.333 609.5,831C 607.978,835.339 607.311,839.839 607.5,844.5C 608.552,844.351 609.552,844.517 610.5,845C 608.82,845.347 607.82,846.347 607.5,848C 607.5,851.333 607.5,854.667 607.5,858C 608.044,859.585 608.711,861.085 609.5,862.5C 609.334,867.844 609.501,873.177 610,878.5C 612.363,882.326 611.197,883.993 606.5,883.5C 606.884,878.872 606.05,874.539 604,870.5C 601.971,873.029 600.138,875.696 598.5,878.5C 599.841,880.834 599.174,882.501 596.5,883.5C 595.119,883 594.453,882 594.5,880.5C 595.754,878.677 596.754,876.677 597.5,874.5C 598.021,872.476 598.188,870.476 598,868.5C 594.376,870.209 591.542,872.709 589.5,876C 587.075,876.986 585.409,876.319 584.5,874C 590.047,870.464 595.047,866.131 599.5,861C 592.862,861.367 586.195,862.033 579.5,863C 576.127,866.763 572.294,869.93 568,872.5C 567.736,877.723 565.902,878.557 562.5,875C 562.667,874.5 562.833,874 563,873.5C 566.167,871.667 568.667,869.167 570.5,866C 566.169,866.209 562.336,867.709 559,870.5C 556.5,869.667 556,868.167 557.5,866C 561.497,865.498 565.164,864.165 568.5,862C 564.162,860.595 559.829,860.428 555.5,861.5C 555.01,859.052 555.843,857.385 558,856.5C 559.52,857.507 561.187,858.173 563,858.5C 567.21,858.088 571.376,857.421 575.5,856.5C 572.072,851.645 569.739,846.311 568.5,840.5C 569.212,833.788 572.879,830.121 579.5,829.5C 584.992,830.206 590.326,831.54 595.5,833.5C 596.474,831.257 596.808,828.924 596.5,826.5C 571.31,817.104 564.977,800.437 577.5,776.5C 572.582,762.661 577.249,754.327 591.5,751.5C 593.167,751.667 594.833,751.833 596.5,752C 600.328,754.339 603.995,756.839 607.5,759.5C 616.329,758.181 625.162,758.181 634,759.5C 636.8,757.377 639.633,755.21 642.5,753C 652.398,749.741 659.898,752.574 665,761.5C 665.438,766.87 665.438,772.203 665,777.5C 673.311,789.222 673.645,801.222 666,813.5C 661.191,819.142 655.358,823.142 648.5,825.5C 648.338,827.527 648.505,829.527 649,831.5C 655.614,828.232 662.447,827.732 669.5,830C 673.576,833.226 675.076,837.393 674,842.5C 672.524,847.455 670.024,851.788 666.5,855.5C 671.93,857.531 677.264,857.531 682.5,855.5C 684.266,855.434 685.266,856.268 685.5,858C 685.333,859.5 684.5,860.333 683,860.5C 679.472,859.334 675.972,859.501 672.5,861C 674.833,862.167 677.167,863.333 679.5,864.5C 681.834,863.159 683.501,863.826 684.5,866.5C 682.133,870.362 679.8,870.196 677.5,866C 675.444,865.689 673.444,865.189 671.5,864.5C 671.167,864.833 670.833,865.167 670.5,865.5C 672.86,868.527 675.527,871.194 678.5,873.5C 675.341,877.609 673.341,876.942 672.5,871.5C 669.5,869 666.5,866.5 663.5,864C 656.854,862.228 650.187,860.894 643.5,860C 647.852,865.37 653.018,869.536 659,872.5C 659.49,873.793 659.657,875.127 659.5,876.5C 656.159,877.157 654.159,875.824 653.5,872.5C 651.082,871.543 648.916,870.209 647,868.5C 646.886,873.614 647.886,878.281 650,882.5C 648.667,883.833 647.333,883.833 646,882.5C 645.781,877.775 643.948,873.775 640.5,870.5C 638.462,874.395 637.629,878.395 638,882.5C 636.951,883.517 635.784,883.684 634.5,883C 635.634,876.259 635.634,869.425 634.5,862.5 Z"/></g>
<g><path style="opacity:1" fill="#ecbc92" d="M 581.5,777.5 C 586.805,778.241 588.139,780.741 585.5,785C 579.202,785.495 577.868,782.995 581.5,777.5 Z"/></g>
<g><path style="opacity:1" fill="#edbc90" d="M 656.5,777.5 C 660.145,776.68 662.478,778.013 663.5,781.5C 662.165,785.004 659.832,786.004 656.5,784.5C 655.286,782.141 655.286,779.808 656.5,777.5 Z"/></g>
<g><path style="opacity:1" fill="#7db938" d="M 659.5,770.5 C 660.925,763.337 658.258,758.67 651.5,756.5C 651.866,755.305 652.699,754.639 654,754.5C 655.567,755.856 657.4,756.523 659.5,756.5C 659.262,759.408 660.262,761.742 662.5,763.5C 661.939,765.426 661.773,767.426 662,769.5C 661.329,770.252 660.496,770.586 659.5,770.5 Z"/></g>
<g><path style="opacity:1" fill="#f8f8f3" d="M 589.5,756.5 C 599.977,756.149 604.144,761.149 602,771.5C 594.96,779.784 588.46,779.451 582.5,770.5C 580.628,763.805 582.961,759.138 589.5,756.5 Z"/></g>
<g><path style="opacity:1" fill="#121215" d="M 593.5,758.5 C 598.5,759.155 600.167,761.822 598.5,766.5C 594.446,769.479 591.779,768.479 590.5,763.5C 590.757,761.308 591.757,759.641 593.5,758.5 Z"/></g>
<g><path style="opacity:1" fill="#78b830" d="M 589.5,756.5 C 582.961,759.138 580.628,763.805 582.5,770.5C 580.748,770.582 579.748,769.749 579.5,768C 580.833,766.333 580.833,764.667 579.5,763C 580.742,761.349 581.576,759.515 582,757.5C 583.82,756.511 585.653,755.511 587.5,754.5C 588.713,754.747 589.38,755.414 589.5,756.5 Z"/></g>
<g><path style="opacity:1" fill="#fbfbf5" d="M 651.5,756.5 C 658.258,758.67 660.925,763.337 659.5,770.5C 653.31,779.248 646.81,779.581 640,771.5C 637.551,761.775 641.384,756.775 651.5,756.5 Z"/></g>
<g><path style="opacity:1" fill="#151618" d="M 650.5,758.5 C 655.989,758.504 657.822,761.171 656,766.5C 653.034,769.265 650.367,768.932 648,765.5C 647.333,764.167 647.333,762.833 648,761.5C 649.045,760.627 649.878,759.627 650.5,758.5 Z"/></g>
<g><path style="opacity:1" fill="#bebe29" d="M 641.5,814.5 C 641.5,814.833 641.5,815.167 641.5,815.5C 626.137,821.164 611.137,820.33 596.5,813C 611.248,818.319 626.248,818.819 641.5,814.5 Z"/></g>
<g><path style="opacity:1" fill="#dc1c13" d="M 641.5,815.5 C 641.5,815.167 641.5,814.833 641.5,814.5C 643.426,813.758 645.259,812.758 647,811.5C 650.503,814.66 650.336,817.327 646.5,819.5C 644.239,818.905 642.572,817.571 641.5,815.5 Z"/></g>
<g><path style="opacity:1" fill="#fbe9d9" d="M 410.5,807.5 C 418.701,807.937 422.701,812.271 422.5,820.5C 422.329,830.496 417.329,834.329 407.5,832C 401.443,824.481 401.11,816.814 406.5,809C 408.058,808.79 409.391,808.29 410.5,807.5 Z"/></g>
<g><path style="opacity:1" fill="#1d1c1b" d="M 410.5,811.5 C 415.923,811.603 416.756,813.603 413,817.5C 410.272,816.033 409.439,814.033 410.5,811.5 Z"/></g>
<g><path style="opacity:1" fill="#fcec33" d="M 634.5,862.5 C 626.167,866.5 617.833,866.5 609.5,862.5C 608.711,861.085 608.044,859.585 607.5,858C 607.5,854.667 607.5,851.333 607.5,848C 607.82,846.347 608.82,845.347 610.5,845C 609.552,844.517 608.552,844.351 607.5,844.5C 607.311,839.839 607.978,835.339 609.5,831C 611.833,830.333 614.167,830.333 616.5,831C 619.439,834.068 621.939,833.902 624,830.5C 625.011,831.337 626.178,831.67 627.5,831.5C 627.343,832.873 627.51,834.207 628,835.5C 628.654,834.304 629.154,834.304 629.5,835.5C 628.975,836.192 628.308,836.692 627.5,837C 628.76,838.113 629.927,838.28 631,837.5C 630.44,840.388 631.607,842.721 634.5,844.5C 635.192,843.975 635.692,843.308 636,842.5C 638.105,845.011 637.938,847.344 635.5,849.5C 633.894,849.519 632.228,849.353 630.5,849C 631.711,849.893 631.711,850.726 630.5,851.5C 628.73,850.18 628.397,848.68 629.5,847C 628.4,846.568 627.733,847.068 627.5,848.5C 627.925,851.347 629.591,853.014 632.5,853.5C 632.833,852.833 633.167,852.167 633.5,851.5C 635.35,852.242 636.016,853.242 635.5,854.5C 636.192,853.975 636.692,853.308 637,852.5C 637.973,856.359 637.14,859.692 634.5,862.5 Z"/></g>
<g><path style="opacity:1" fill="#fcf8fc" d="M 134.5,858.5 C 136.948,858.085 138.281,859.085 138.5,861.5C 137.251,864.42 135.251,866.753 132.5,868.5C 130.859,864.63 131.526,861.297 134.5,858.5 Z"/></g>
<g><path style="opacity:1" fill="#1b1a1b" d="M 234.5,870.5 C 235.028,871.721 235.695,872.887 236.5,874C 232.76,876.307 228.76,878.14 224.5,879.5C 221.807,877.441 220.14,874.774 219.5,871.5C 224.547,871.663 229.547,871.329 234.5,870.5 Z"/></g>
<g><path style="opacity:1" fill="#19191b" d="M 211.5,880.5 C 211.5,878.167 211.5,875.833 211.5,873.5C 213.693,872.203 216.027,872.203 218.5,873.5C 217.287,875.851 217.953,877.684 220.5,879C 217.722,880.392 214.722,880.892 211.5,880.5 Z"/></g>
</svg>
